<svg width="110" height="110" viewBox="0 0 110 110" fill="none" xmlns="http://www.w3.org/2000/svg">
<rect x="2" y="2" width="106" height="106" rx="53" stroke="white" stroke-width="4"/>
<path fill-rule="evenodd" clip-rule="evenodd" d="M40.9697 22.3727C43.0564 23.7308 44.2465 25.6386 44.54 28.0962H50.4088C50.3273 25.5901 49.5448 23.3508 48.0613 21.3783C46.5941 19.4058 44.6052 17.8537 42.0946 16.7219C39.584 15.574 36.7148 15 33.4869 15C30.2917 15 27.398 15.5821 24.8059 16.7462C22.2301 17.8941 20.176 19.5109 18.6436 21.5966C17.1275 23.6661 16.3694 26.0914 16.3694 28.8723C16.3694 32.2191 17.5106 34.9272 19.7929 36.9968C22.0752 39.0663 25.1727 40.6589 29.0853 41.7745L35.2476 43.5206C37.0083 44.0057 38.6466 44.5715 40.1628 45.2183C41.6789 45.865 42.9016 46.7057 43.8308 47.7405C44.76 48.7753 45.2247 50.1172 45.2247 51.7664C45.2247 51.8948 45.222 52.0221 45.2165 52.1483L50.2822 47.2393C50.1018 46.7935 49.8913 46.3704 49.6508 45.9701C48.6889 44.3694 47.4662 43.0598 45.9827 42.0412C44.5155 41.0065 42.9749 40.19 41.361 39.5918C39.7634 38.9935 38.3124 38.5247 37.0083 38.1851L31.9219 36.827C30.9927 36.5845 29.9738 36.2692 28.8652 35.8812C27.7566 35.477 26.697 34.9677 25.6862 34.3533C24.6755 33.7227 23.8441 32.9386 23.192 32.0008C22.5562 31.0469 22.2383 29.907 22.2383 28.5812C22.2383 26.9968 22.6947 25.5821 23.6077 24.3371C24.5369 23.0922 25.8248 22.114 27.4713 21.4026C29.1342 20.6912 31.0742 20.3355 33.2913 20.3355C36.3236 20.3355 38.883 21.0146 40.9697 22.3727ZM30.957 66.1554L37.0083 60.3645C35.7612 60.647 34.4244 60.7882 32.9979 60.7882C31.009 60.7882 29.1505 60.4972 27.4224 59.9151C25.7107 59.3169 24.2924 58.4115 23.1675 57.1989C22.0589 55.9701 21.4231 54.418 21.2601 52.5424H15C15.1956 55.2587 16.0352 57.6435 17.5187 59.6969C19.0185 61.7502 21.0726 63.3509 23.681 64.4988C25.7945 65.4232 28.2198 65.9754 30.957 66.1554Z" fill="white"/>
<path fill-rule="evenodd" clip-rule="evenodd" d="M86.319 55.7841C87.1993 57.0776 87.9085 58.5408 88.4464 60.1738H94.7066C94.2501 57.7647 93.4187 55.5739 92.2123 53.6014C91.0059 51.6127 89.4979 49.907 87.6884 48.4842C85.8951 47.0452 83.8492 45.9377 81.5505 45.1617C79.6704 44.509 77.5349 44.0996 75.545 44.0102C73.0123 46.5211 69.0596 50.4399 69.0596 50.4399C70.6624 49.8798 72.3644 49.5998 74.1655 49.5998C75.9751 49.5998 77.6379 49.8423 79.1541 50.3274C80.6702 50.8124 82.0233 51.5157 83.2134 52.4373C84.4197 53.3589 85.455 54.4745 86.319 55.7841ZM58.124 69.4866C58.124 65.6583 58.6923 62.3617 59.8291 59.5967L52.3268 67.037C52.279 67.8357 52.2551 68.6522 52.2551 69.4866C52.2551 74.7251 53.1843 79.2522 55.0428 83.0679C56.9176 86.8836 59.526 89.8262 62.868 91.8957C66.2263 93.9652 70.1225 95 74.5568 95C78.5346 95 82.0559 94.1754 85.1208 92.5263C88.2019 90.8609 90.6147 88.5165 92.359 85.4931C94.1197 82.4697 95 78.9127 95 74.8221V69.4866H75.9262V74.8221H89.1277C89.077 77.6992 88.4586 80.2134 87.2727 82.3646C86.05 84.5958 84.3382 86.3258 82.1374 87.5545C79.9529 88.7672 77.426 89.3735 74.5568 89.3735C71.4593 89.3735 68.6716 88.6136 66.1937 87.0938C63.7157 85.5739 61.7512 83.3347 60.3003 80.3759C58.8494 77.4171 58.124 73.7874 58.124 69.4866Z" fill="white"/>
<path d="M84.6897 23.9572C22.0885 84.9111 24.4071 83.941 22.0885 86.0429" stroke="white" stroke-width="5"/>
</svg>
