<svg width="100" height="100" viewBox="0 0 100 100" fill="none" xmlns="http://www.w3.org/2000/svg">
<rect x="2" y="2" width="96" height="96" rx="8" stroke="white" stroke-width="4"/>
<path fill-rule="evenodd" clip-rule="evenodd" d="M38.0967 18.4688C40.0967 19.7813 41.2373 21.625 41.5186 24H47.1436C47.0654 21.5781 46.3154 19.4141 44.8936 17.5078C43.4873 15.6016 41.5811 14.1016 39.1748 13.0078C36.7686 11.8984 34.0186 11.3438 30.9248 11.3438C27.8623 11.3438 25.0889 11.9063 22.6045 13.0313C20.1357 14.1406 18.167 15.7031 16.6982 17.7188C15.2451 19.7188 14.5186 22.0625 14.5186 24.75C14.5186 27.9844 15.6123 30.6016 17.7998 32.6016C19.9873 34.6016 22.9561 36.1406 26.7061 37.2188L32.6123 38.9063C34.2998 39.375 35.8701 39.9219 37.3232 40.5469C38.7764 41.1719 39.9482 41.9844 40.8389 42.9844C41.7295 43.9844 42.1748 45.2812 42.1748 46.875C42.1748 46.9991 42.1722 47.1222 42.167 47.2441L47.0222 42.5C46.8493 42.0692 46.6476 41.6603 46.417 41.2734C45.4951 39.7266 44.3232 38.4609 42.9014 37.4766C41.4951 36.4766 40.0186 35.6875 38.4717 35.1094C36.9404 34.5313 35.5498 34.0781 34.2998 33.75L29.4248 32.4375C28.5342 32.2031 27.5576 31.8984 26.4951 31.5234C25.4326 31.1328 24.417 30.6406 23.4482 30.0469C22.4795 29.4375 21.6826 28.6797 21.0576 27.7734C20.4482 26.8516 20.1436 25.75 20.1436 24.4687C20.1436 22.9375 20.5811 21.5703 21.4561 20.3672C22.3467 19.1641 23.5811 18.2188 25.1592 17.5312C26.7529 16.8438 28.6123 16.5 30.7373 16.5C33.6436 16.5 36.0967 17.1563 38.0967 18.4688ZM28.5 60.7806L34.2998 55.1843C33.1046 55.4573 31.8233 55.5938 30.4561 55.5938C28.5498 55.5938 26.7686 55.3125 25.1123 54.75C23.4717 54.1719 22.1123 53.2969 21.0342 52.125C19.9717 50.9375 19.3623 49.4375 19.2061 47.625H13.2061C13.3936 50.25 14.1982 52.5547 15.6201 54.5391C17.0576 56.5234 19.0264 58.0703 21.5264 59.1797C23.552 60.073 25.8766 60.6066 28.5 60.7806Z" fill="white"/>
<path fill-rule="evenodd" clip-rule="evenodd" d="M81.5615 50.7578C82.4053 52.0078 83.085 53.4219 83.6006 55H89.6006C89.1631 52.6719 88.3662 50.5547 87.21 48.6484C86.0537 46.7265 84.6084 45.0781 82.874 43.7031C81.1553 42.3125 79.1943 41.2422 76.9912 40.4922C75.1892 39.8615 73.1425 39.4658 71.2352 39.3794C68.8077 41.806 65.0193 45.5931 65.0193 45.5931C66.5556 45.0518 68.1868 44.7812 69.9131 44.7812C71.6475 44.7812 73.2412 45.0156 74.6943 45.4844C76.1475 45.9531 77.4443 46.6328 78.585 47.5234C79.7412 48.414 80.7334 49.4922 81.5615 50.7578ZM54.5381 64C54.5381 60.3003 55.0828 57.1144 56.1724 54.4423L48.9818 61.6326C48.936 62.4045 48.9131 63.1936 48.9131 64C48.9131 69.0625 49.8037 73.4375 51.585 77.125C53.3818 80.8125 55.8818 83.6562 59.085 85.6562C62.3037 87.6562 66.0381 88.6562 70.2881 88.6562C74.1006 88.6562 77.4756 87.8594 80.4131 86.2656C83.3662 84.6562 85.6787 82.3906 87.3506 79.4687C89.0381 76.5469 89.8818 73.1094 89.8818 69.1562V64H71.6006V69.1562H84.2536C84.2049 71.9367 83.6123 74.3664 82.4756 76.4453C81.3037 78.6015 79.6631 80.2734 77.5537 81.4609C75.46 82.6328 73.0381 83.2187 70.2881 83.2187C67.3193 83.2187 64.6475 82.4844 62.2725 81.0156C59.8975 79.5469 58.0146 77.3828 56.624 74.5234C55.2334 71.664 54.5381 68.1562 54.5381 64Z" fill="white"/>
<path d="M80 20C20 78.9062 22.2222 77.9688 20 80" stroke="white" stroke-width="5"/>
</svg>
