<svg width="352" height="110" viewBox="0 0 352 110" fill="none" xmlns="http://www.w3.org/2000/svg">
<g clip-path="url(#clip0_2001_6)">
<path d="M143.852 76H141.386C141.241 75.2907 140.985 74.6676 140.621 74.1307C140.263 73.5938 139.825 73.143 139.308 72.7784C138.798 72.4072 138.231 72.1288 137.608 71.9432C136.985 71.7576 136.335 71.6648 135.659 71.6648C134.426 71.6648 133.309 71.9763 132.308 72.5994C131.314 73.2225 130.522 74.1406 129.932 75.3537C129.348 76.5668 129.057 78.0549 129.057 79.8182C129.057 81.5814 129.348 83.0696 129.932 84.2827C130.522 85.4957 131.314 86.4138 132.308 87.0369C133.309 87.66 134.426 87.9716 135.659 87.9716C136.335 87.9716 136.985 87.8788 137.608 87.6932C138.231 87.5076 138.798 87.2325 139.308 86.8679C139.825 86.4967 140.263 86.0426 140.621 85.5057C140.985 84.9621 141.241 84.339 141.386 83.6364H143.852C143.667 84.6771 143.329 85.6084 142.838 86.4304C142.348 87.2524 141.738 87.9517 141.009 88.5284C140.279 89.0985 139.461 89.5327 138.553 89.831C137.651 90.1293 136.687 90.2784 135.659 90.2784C133.922 90.2784 132.378 89.8542 131.026 89.0057C129.673 88.1572 128.609 86.9508 127.834 85.3864C127.058 83.822 126.67 81.9659 126.67 79.8182C126.67 77.6705 127.058 75.8144 127.834 74.25C128.609 72.6856 129.673 71.4792 131.026 70.6307C132.378 69.7822 133.922 69.358 135.659 69.358C136.687 69.358 137.651 69.5071 138.553 69.8054C139.461 70.1037 140.279 70.5412 141.009 71.1179C141.738 71.688 142.348 72.384 142.838 73.206C143.329 74.0213 143.667 74.9527 143.852 76ZM153.723 90.3182C152.345 90.3182 151.135 89.9901 150.094 89.3338C149.06 88.6776 148.251 87.7595 147.668 86.5795C147.091 85.3996 146.803 84.0208 146.803 82.4432C146.803 80.8523 147.091 79.4635 147.668 78.277C148.251 77.0904 149.06 76.169 150.094 75.5128C151.135 74.8565 152.345 74.5284 153.723 74.5284C155.102 74.5284 156.309 74.8565 157.343 75.5128C158.383 76.169 159.192 77.0904 159.769 78.277C160.352 79.4635 160.644 80.8523 160.644 82.4432C160.644 84.0208 160.352 85.3996 159.769 86.5795C159.192 87.7595 158.383 88.6776 157.343 89.3338C156.309 89.9901 155.102 90.3182 153.723 90.3182ZM153.723 88.2102C154.771 88.2102 155.632 87.9418 156.309 87.4048C156.985 86.8679 157.485 86.1619 157.81 85.2869C158.135 84.4119 158.297 83.464 158.297 82.4432C158.297 81.4223 158.135 80.4711 157.81 79.5895C157.485 78.7079 156.985 77.9953 156.309 77.4517C155.632 76.9081 154.771 76.6364 153.723 76.6364C152.676 76.6364 151.814 76.9081 151.138 77.4517C150.462 77.9953 149.962 78.7079 149.637 79.5895C149.312 80.4711 149.15 81.4223 149.15 82.4432C149.15 83.464 149.312 84.4119 149.637 85.2869C149.962 86.1619 150.462 86.8679 151.138 87.4048C151.814 87.9418 152.676 88.2102 153.723 88.2102ZM164.226 90V74.7273H166.493V77.1136H166.692C167.01 76.2983 167.524 75.6652 168.233 75.2145C168.942 74.7571 169.794 74.5284 170.788 74.5284C171.796 74.5284 172.634 74.7571 173.304 75.2145C173.98 75.6652 174.507 76.2983 174.885 77.1136H175.044C175.435 76.3248 176.022 75.6984 176.804 75.2344C177.586 74.7637 178.524 74.5284 179.618 74.5284C180.983 74.5284 182.1 74.956 182.969 75.8111C183.837 76.6596 184.271 77.982 184.271 79.7784V90H181.925V79.7784C181.925 78.6515 181.616 77.8461 181 77.3622C180.384 76.8783 179.658 76.6364 178.822 76.6364C177.749 76.6364 176.917 76.9612 176.327 77.6108C175.737 78.2538 175.442 79.0691 175.442 80.0568V90H173.055V79.5398C173.055 78.6714 172.774 77.9721 172.21 77.4418C171.647 76.9048 170.921 76.6364 170.033 76.6364C169.423 76.6364 168.853 76.7988 168.322 77.1236C167.799 77.4484 167.375 77.8991 167.05 78.4759C166.732 79.0459 166.572 79.7055 166.572 80.4545V90H164.226ZM188.562 95.7273V74.7273H190.829V77.1534H191.107C191.28 76.8883 191.518 76.5502 191.823 76.1392C192.135 75.7216 192.579 75.3504 193.156 75.0256C193.739 74.6941 194.528 74.5284 195.522 74.5284C196.808 74.5284 197.942 74.8499 198.923 75.4929C199.904 76.1359 200.669 77.0473 201.219 78.2273C201.77 79.4072 202.045 80.7992 202.045 82.4034C202.045 84.0208 201.77 85.4228 201.219 86.6094C200.669 87.7893 199.907 88.7041 198.933 89.3537C197.958 89.9967 196.835 90.3182 195.562 90.3182C194.581 90.3182 193.795 90.1558 193.205 89.831C192.615 89.4995 192.161 89.125 191.843 88.7074C191.525 88.2831 191.28 87.9318 191.107 87.6534H190.908V95.7273H188.562ZM190.869 82.3636C190.869 83.517 191.038 84.5346 191.376 85.4162C191.714 86.2912 192.208 86.9773 192.857 87.4744C193.507 87.965 194.302 88.2102 195.244 88.2102C196.225 88.2102 197.043 87.9517 197.7 87.4347C198.362 86.911 198.86 86.2083 199.191 85.3267C199.529 84.4384 199.698 83.4508 199.698 82.3636C199.698 81.2898 199.532 80.322 199.201 79.4602C198.876 78.5919 198.382 77.9058 197.719 77.402C197.063 76.8916 196.238 76.6364 195.244 76.6364C194.289 76.6364 193.487 76.8783 192.837 77.3622C192.188 77.8395 191.697 78.509 191.366 79.3707C191.034 80.2259 190.869 81.2235 190.869 82.3636ZM210.119 90.358C209.151 90.358 208.272 90.1757 207.484 89.8111C206.695 89.4399 206.068 88.9062 205.604 88.2102C205.14 87.5076 204.908 86.6591 204.908 85.6648C204.908 84.7898 205.081 84.0805 205.425 83.5369C205.77 82.9867 206.231 82.5559 206.808 82.2443C207.384 81.9328 208.021 81.7008 208.717 81.5483C209.419 81.3892 210.125 81.2633 210.835 81.1705C211.763 81.0511 212.515 80.9616 213.092 80.902C213.675 80.8357 214.099 80.7263 214.364 80.5739C214.636 80.4214 214.772 80.1562 214.772 79.7784V79.6989C214.772 78.7178 214.504 77.9555 213.967 77.4119C213.436 76.8684 212.631 76.5966 211.55 76.5966C210.43 76.5966 209.552 76.8419 208.915 77.3324C208.279 77.8229 207.832 78.3466 207.573 78.9034L205.346 78.108C205.744 77.1799 206.274 76.4574 206.937 75.9403C207.606 75.4167 208.335 75.0521 209.124 74.8466C209.92 74.6345 210.702 74.5284 211.471 74.5284C211.961 74.5284 212.525 74.5881 213.161 74.7074C213.804 74.8201 214.424 75.0554 215.021 75.4134C215.624 75.7713 216.124 76.3116 216.522 77.0341C216.92 77.7566 217.119 78.7244 217.119 79.9375V90H214.772V87.9318H214.653C214.494 88.2633 214.228 88.6179 213.857 88.9957C213.486 89.3736 212.992 89.6951 212.376 89.9602C211.759 90.2254 211.007 90.358 210.119 90.358ZM210.477 88.25C211.405 88.25 212.187 88.0677 212.823 87.7031C213.466 87.3385 213.95 86.8679 214.275 86.2912C214.606 85.7145 214.772 85.108 214.772 84.4716V82.3239C214.673 82.4432 214.454 82.5526 214.116 82.652C213.784 82.7448 213.4 82.8277 212.962 82.9006C212.531 82.9669 212.111 83.0265 211.7 83.0795C211.295 83.1259 210.967 83.1657 210.715 83.1989C210.105 83.2784 209.535 83.4077 209.005 83.5866C208.481 83.759 208.057 84.0208 207.732 84.3722C207.414 84.7169 207.255 85.1875 207.255 85.7841C207.255 86.5994 207.557 87.2159 208.16 87.6335C208.77 88.0445 209.542 88.25 210.477 88.25ZM223.748 80.8125V90H221.402V74.7273H223.669V77.1136H223.868C224.225 76.3381 224.769 75.715 225.498 75.2443C226.227 74.767 227.169 74.5284 228.322 74.5284C229.356 74.5284 230.261 74.7405 231.037 75.1648C231.812 75.5824 232.415 76.2188 232.846 77.0739C233.277 77.9223 233.493 78.9962 233.493 80.2955V90H231.146V80.4545C231.146 79.2547 230.834 78.3201 230.211 77.6506C229.588 76.9744 228.733 76.6364 227.646 76.6364C226.897 76.6364 226.227 76.7988 225.637 77.1236C225.054 77.4484 224.593 77.9223 224.255 78.5455C223.917 79.1686 223.748 79.9242 223.748 80.8125ZM238.745 95.7273C238.347 95.7273 237.993 95.6941 237.681 95.6278C237.37 95.5682 237.154 95.5085 237.035 95.4489L237.631 93.3807C238.201 93.5265 238.705 93.5795 239.143 93.5398C239.58 93.5 239.968 93.3045 240.306 92.9531C240.651 92.6084 240.966 92.0483 241.251 91.2727L241.688 90.0795L236.04 74.7273H238.586L242.802 86.8977H242.961L247.177 74.7273H249.722L243.239 92.2273C242.948 93.0161 242.586 93.669 242.156 94.1861C241.725 94.7098 241.224 95.0975 240.654 95.3494C240.091 95.6013 239.454 95.7273 238.745 95.7273Z" fill="white"/>
<path d="M148.318 30.8182C148.114 29.0909 147.284 27.75 145.83 26.7955C144.375 25.8409 142.591 25.3636 140.477 25.3636C138.932 25.3636 137.58 25.6136 136.42 26.1136C135.273 26.6136 134.375 27.3011 133.727 28.1761C133.091 29.0511 132.773 30.0455 132.773 31.1591C132.773 32.0909 132.994 32.892 133.438 33.5625C133.892 34.2216 134.472 34.7727 135.176 35.2159C135.881 35.6477 136.619 36.0057 137.392 36.2898C138.165 36.5625 138.875 36.7841 139.523 36.9545L143.068 37.9091C143.977 38.1477 144.989 38.4773 146.102 38.8977C147.227 39.3182 148.301 39.892 149.324 40.6193C150.358 41.3352 151.21 42.2557 151.881 43.3807C152.551 44.5057 152.886 45.8864 152.886 47.5227C152.886 49.4091 152.392 51.1136 151.403 52.6364C150.426 54.1591 148.994 55.3693 147.108 56.267C145.233 57.1648 142.955 57.6136 140.273 57.6136C137.773 57.6136 135.608 57.2102 133.778 56.4034C131.96 55.5966 130.528 54.4716 129.483 53.0284C128.449 51.5852 127.864 49.9091 127.727 48H132.091C132.205 49.3182 132.648 50.4091 133.42 51.2727C134.205 52.125 135.193 52.7614 136.386 53.1818C137.591 53.5909 138.886 53.7955 140.273 53.7955C141.886 53.7955 143.335 53.5341 144.619 53.0114C145.903 52.4773 146.92 51.7386 147.67 50.7955C148.42 49.8409 148.795 48.7273 148.795 47.4545C148.795 46.2955 148.472 45.3523 147.824 44.625C147.176 43.8977 146.324 43.3068 145.267 42.8523C144.21 42.3977 143.068 42 141.841 41.6591L137.545 40.4318C134.818 39.6477 132.659 38.5284 131.068 37.0739C129.477 35.6193 128.682 33.7159 128.682 31.3636C128.682 29.4091 129.21 27.7045 130.267 26.25C131.335 24.7841 132.767 23.6477 134.562 22.8409C136.369 22.0227 138.386 21.6136 140.614 21.6136C142.864 21.6136 144.864 22.017 146.614 22.8239C148.364 23.6193 149.75 24.7102 150.773 26.0966C151.807 27.483 152.352 29.0568 152.409 30.8182H148.318ZM169.928 57.5455C167.564 57.5455 165.49 56.983 163.706 55.858C161.933 54.733 160.547 53.1591 159.547 51.1364C158.558 49.1136 158.064 46.75 158.064 44.0455C158.064 41.3182 158.558 38.9375 159.547 36.9034C160.547 34.8693 161.933 33.2898 163.706 32.1648C165.49 31.0398 167.564 30.4773 169.928 30.4773C172.291 30.4773 174.359 31.0398 176.132 32.1648C177.916 33.2898 179.303 34.8693 180.291 36.9034C181.291 38.9375 181.791 41.3182 181.791 44.0455C181.791 46.75 181.291 49.1136 180.291 51.1364C179.303 53.1591 177.916 54.733 176.132 55.858C174.359 56.983 172.291 57.5455 169.928 57.5455ZM169.928 53.9318C171.723 53.9318 173.2 53.4716 174.359 52.5511C175.518 51.6307 176.376 50.4205 176.933 48.9205C177.49 47.4205 177.768 45.7955 177.768 44.0455C177.768 42.2955 177.49 40.6648 176.933 39.1534C176.376 37.642 175.518 36.4205 174.359 35.4886C173.2 34.5568 171.723 34.0909 169.928 34.0909C168.132 34.0909 166.655 34.5568 165.496 35.4886C164.337 36.4205 163.479 37.642 162.922 39.1534C162.365 40.6648 162.087 42.2955 162.087 44.0455C162.087 45.7955 162.365 47.4205 162.922 48.9205C163.479 50.4205 164.337 51.6307 165.496 52.5511C166.655 53.4716 168.132 53.9318 169.928 53.9318ZM199.591 30.8182V34.2273H185.477V30.8182H199.591ZM189.705 57V27.2045C189.705 25.7045 190.057 24.4545 190.761 23.4545C191.466 22.4545 192.381 21.7045 193.506 21.2045C194.631 20.7045 195.818 20.4545 197.068 20.4545C198.057 20.4545 198.864 20.5341 199.489 20.6932C200.114 20.8523 200.58 21 200.886 21.1364L199.727 24.6136C199.523 24.5455 199.239 24.4602 198.875 24.358C198.523 24.2557 198.057 24.2045 197.477 24.2045C196.148 24.2045 195.188 24.5398 194.597 25.2102C194.017 25.8807 193.727 26.8636 193.727 28.1591V57H189.705ZM216.615 30.8182V34.2273H203.047V30.8182H216.615ZM207.001 24.5455H211.024V49.5C211.024 50.6364 211.189 51.4886 211.518 52.0568C211.859 52.6136 212.291 52.9886 212.814 53.1818C213.348 53.3636 213.911 53.4545 214.501 53.4545C214.945 53.4545 215.308 53.4318 215.592 53.3864C215.876 53.3295 216.104 53.2841 216.274 53.25L217.092 56.8636C216.82 56.9659 216.439 57.0682 215.95 57.1705C215.462 57.2841 214.842 57.3409 214.092 57.3409C212.956 57.3409 211.842 57.0966 210.751 56.608C209.672 56.1193 208.774 55.375 208.058 54.375C207.354 53.375 207.001 52.1136 207.001 50.5909V24.5455ZM232.953 67.3636C231.01 67.3636 229.339 67.1136 227.942 66.6136C226.544 66.125 225.379 65.4773 224.447 64.6705C223.527 63.875 222.794 63.0227 222.249 62.1136L225.453 59.8636C225.817 60.3409 226.277 60.8864 226.834 61.5C227.391 62.125 228.152 62.6648 229.118 63.1193C230.095 63.5852 231.374 63.8182 232.953 63.8182C235.067 63.8182 236.811 63.3068 238.186 62.2841C239.561 61.2614 240.249 59.6591 240.249 57.4773V52.1591H239.908C239.612 52.6364 239.192 53.2273 238.646 53.9318C238.112 54.625 237.339 55.2443 236.328 55.7898C235.328 56.3239 233.976 56.5909 232.271 56.5909C230.158 56.5909 228.26 56.0909 226.578 55.0909C224.908 54.0909 223.584 52.6364 222.607 50.7273C221.641 48.8182 221.158 46.5 221.158 43.7727C221.158 41.0909 221.629 38.7557 222.572 36.767C223.516 34.767 224.828 33.2216 226.51 32.1307C228.192 31.0284 230.135 30.4773 232.339 30.4773C234.044 30.4773 235.396 30.7614 236.396 31.3295C237.408 31.8864 238.18 32.5227 238.714 33.2386C239.26 33.9432 239.68 34.5227 239.976 34.9773H240.385V30.8182H244.271V57.75C244.271 60 243.76 61.8295 242.737 63.2386C241.726 64.6591 240.362 65.6989 238.646 66.358C236.942 67.0284 235.044 67.3636 232.953 67.3636ZM232.817 52.9773C234.43 52.9773 235.794 52.608 236.908 51.8693C238.021 51.1307 238.868 50.0682 239.447 48.6818C240.027 47.2955 240.317 45.6364 240.317 43.7045C240.317 41.8182 240.033 40.1534 239.464 38.7102C238.896 37.267 238.055 36.1364 236.942 35.3182C235.828 34.5 234.453 34.0909 232.817 34.0909C231.112 34.0909 229.692 34.5227 228.555 35.3864C227.43 36.25 226.584 37.4091 226.016 38.8636C225.459 40.3182 225.18 41.9318 225.18 43.7045C225.18 45.5227 225.464 47.1307 226.033 48.5284C226.612 49.9148 227.464 51.0057 228.589 51.8011C229.726 52.5852 231.135 52.9773 232.817 52.9773ZM251.635 57V30.8182H255.521V34.7727H255.794C256.271 33.4773 257.135 32.4261 258.385 31.6193C259.635 30.8125 261.044 30.4091 262.612 30.4091C262.908 30.4091 263.277 30.4148 263.72 30.4261C264.163 30.4375 264.499 30.4545 264.726 30.4773V34.5682C264.589 34.5341 264.277 34.483 263.788 34.4148C263.311 34.3352 262.805 34.2955 262.271 34.2955C260.999 34.2955 259.862 34.5625 258.862 35.0966C257.874 35.6193 257.089 36.3466 256.51 37.2784C255.942 38.1989 255.658 39.25 255.658 40.4318V57H251.635ZM279.334 57.5455C276.97 57.5455 274.896 56.983 273.112 55.858C271.339 54.733 269.953 53.1591 268.953 51.1364C267.964 49.1136 267.47 46.75 267.47 44.0455C267.47 41.3182 267.964 38.9375 268.953 36.9034C269.953 34.8693 271.339 33.2898 273.112 32.1648C274.896 31.0398 276.97 30.4773 279.334 30.4773C281.697 30.4773 283.766 31.0398 285.538 32.1648C287.322 33.2898 288.709 34.8693 289.697 36.9034C290.697 38.9375 291.197 41.3182 291.197 44.0455C291.197 46.75 290.697 49.1136 289.697 51.1364C288.709 53.1591 287.322 54.733 285.538 55.858C283.766 56.983 281.697 57.5455 279.334 57.5455ZM279.334 53.9318C281.129 53.9318 282.607 53.4716 283.766 52.5511C284.925 51.6307 285.783 50.4205 286.339 48.9205C286.896 47.4205 287.175 45.7955 287.175 44.0455C287.175 42.2955 286.896 40.6648 286.339 39.1534C285.783 37.642 284.925 36.4205 283.766 35.4886C282.607 34.5568 281.129 34.0909 279.334 34.0909C277.538 34.0909 276.061 34.5568 274.902 35.4886C273.743 36.4205 272.885 37.642 272.328 39.1534C271.771 40.6648 271.493 42.2955 271.493 44.0455C271.493 45.7955 271.771 47.4205 272.328 48.9205C272.885 50.4205 273.743 51.6307 274.902 52.5511C276.061 53.4716 277.538 53.9318 279.334 53.9318ZM313.838 46.2955V30.8182H317.861V57H313.838V52.5682H313.565C312.952 53.8977 311.997 55.0284 310.702 55.9602C309.406 56.8807 307.77 57.3409 305.793 57.3409C304.156 57.3409 302.702 56.983 301.429 56.267C300.156 55.5398 299.156 54.4489 298.429 52.9943C297.702 51.5284 297.338 49.6818 297.338 47.4545V30.8182H301.361V47.1818C301.361 49.0909 301.895 50.6136 302.963 51.75C304.043 52.8864 305.418 53.4545 307.088 53.4545C308.088 53.4545 309.105 53.1989 310.139 52.6875C311.185 52.1761 312.06 51.392 312.764 50.3352C313.48 49.2784 313.838 47.9318 313.838 46.2955ZM325.229 66.8182V30.8182H329.115V34.9773H329.592C329.888 34.5227 330.297 33.9432 330.82 33.2386C331.354 32.5227 332.115 31.8864 333.104 31.3295C334.104 30.7614 335.456 30.4773 337.161 30.4773C339.365 30.4773 341.308 31.0284 342.99 32.1307C344.672 33.233 345.984 34.7955 346.928 36.8182C347.871 38.8409 348.342 41.2273 348.342 43.9773C348.342 46.75 347.871 49.1534 346.928 51.1875C345.984 53.2102 344.678 54.7784 343.007 55.892C341.337 56.9943 339.411 57.5455 337.229 57.5455C335.547 57.5455 334.2 57.267 333.189 56.7102C332.178 56.142 331.399 55.5 330.854 54.7841C330.308 54.0568 329.888 53.4545 329.592 52.9773H329.251V66.8182H325.229ZM329.183 43.9091C329.183 45.8864 329.473 47.6307 330.053 49.142C330.632 50.642 331.479 51.8182 332.592 52.6705C333.706 53.5114 335.07 53.9318 336.683 53.9318C338.365 53.9318 339.768 53.4886 340.893 52.6023C342.03 51.7045 342.882 50.5 343.45 48.9886C344.03 47.4659 344.32 45.7727 344.32 43.9091C344.32 42.0682 344.036 40.4091 343.467 38.9318C342.911 37.4432 342.064 36.267 340.928 35.4034C339.803 34.5284 338.388 34.0909 336.683 34.0909C335.047 34.0909 333.672 34.5057 332.558 35.3352C331.445 36.1534 330.604 37.3011 330.036 38.7784C329.467 40.2443 329.183 41.9545 329.183 43.9091Z" fill="white"/>
<rect x="2" y="2" width="106" height="106" rx="18" stroke="white" stroke-width="4"/>
<path fill-rule="evenodd" clip-rule="evenodd" d="M39.216 18.2943C41.5635 19.8222 42.9023 21.9685 43.2325 24.7332H49.8349C49.7432 21.9139 48.8629 19.3947 47.1939 17.1756C45.5433 14.9565 43.3058 13.2104 40.4814 11.9371C37.657 10.6457 34.4292 10 30.7978 10C27.2031 10 23.9477 10.6548 21.0316 11.9644C18.1339 13.2559 15.823 15.0748 14.099 17.4212C12.3934 19.7494 11.5406 22.4778 11.5406 25.6063C11.5406 29.3715 12.8244 32.4182 15.392 34.7464C17.9597 37.0746 21.4443 38.8662 25.8459 40.1213L32.7785 42.0857C34.7593 42.6314 36.6025 43.268 38.3081 43.9956C40.0138 44.7231 41.3893 45.669 42.4347 46.8331C43.4801 47.9972 44.0028 49.5069 44.0028 51.3622C44.0028 51.5067 43.9997 51.6499 43.9936 51.7918L49.6925 46.2692C49.4895 45.7677 49.2527 45.2917 48.9821 44.8414C47.9 43.0406 46.5245 41.5673 44.8556 40.4214C43.205 39.2573 41.4718 38.3387 39.6561 37.6657C37.8588 36.9927 36.2265 36.4652 34.7593 36.0833L29.0371 34.5554C27.9917 34.2825 26.8455 33.9279 25.5984 33.4913C24.3512 33.0366 23.1591 32.4636 22.022 31.7724C20.8849 31.0631 19.9496 30.1809 19.216 29.1259C18.5007 28.0528 18.1431 26.7704 18.1431 25.2789C18.1431 23.4964 18.6566 21.9048 19.6836 20.5042C20.729 19.1037 22.1779 18.0032 24.0303 17.2029C25.901 16.4026 28.0834 16.0024 30.5777 16.0024C33.989 16.0024 36.8684 16.7664 39.216 18.2943ZM27.9516 67.5498L34.7593 61.0351C33.3564 61.3529 31.8525 61.5117 30.2476 61.5117C28.0101 61.5117 25.9193 61.1843 23.9752 60.5295C22.0495 59.8565 20.4539 58.8379 19.1884 57.4737C17.9413 56.0914 17.226 54.3452 17.0426 52.2353H10C10.2201 55.291 11.1646 57.9739 12.8336 60.284C14.5209 62.594 16.8317 64.3947 19.7662 65.6861C22.1438 66.7261 24.8723 67.3473 27.9516 67.5498Z" fill="white"/>
<path fill-rule="evenodd" clip-rule="evenodd" d="M90.2339 55.8822C91.2242 57.3373 92.022 58.9834 92.6273 60.8205H99.6699C99.1564 58.1103 98.221 55.6457 96.8638 53.4266C95.5067 51.1893 93.8102 49.2704 91.7744 47.6697C89.757 46.0509 87.4553 44.8049 84.8693 43.9319C82.7542 43.1977 80.3518 42.737 78.1131 42.6365C75.2638 45.4613 70.817 49.8699 70.817 49.8699C72.6203 49.2398 74.535 48.9248 76.5612 48.9248C78.597 48.9248 80.4677 49.1976 82.1733 49.7433C83.879 50.289 85.4012 51.0802 86.74 52.117C88.0972 53.1538 89.2618 54.4088 90.2339 55.8822ZM58.5145 71.2975C58.5145 66.9906 59.1539 63.2819 60.4327 60.1713L51.9926 68.5416C51.9389 69.4402 51.912 70.3588 51.912 71.2975C51.912 77.1908 52.9574 82.2837 55.0482 86.5764C57.1573 90.869 60.0917 94.1795 63.8515 96.5077C67.6295 98.8359 72.0129 100 77.0014 100C81.4764 100 85.4379 99.0723 88.8858 97.217C92.3522 95.3436 95.0665 92.7061 97.0289 89.3048C99.0096 85.9034 100 81.9018 100 77.2999V71.2975H78.542V77.2999H93.3937C93.3366 80.5366 92.641 83.365 91.3068 85.7852C89.9312 88.2953 88.0055 90.2415 85.5296 91.6239C83.072 92.9881 80.2293 93.6702 77.0014 93.6702C73.5168 93.6702 70.3806 92.8153 67.5929 91.1055C64.8052 89.3957 62.5952 86.8765 60.9629 83.5479C59.3306 80.2193 58.5145 76.1358 58.5145 71.2975Z" fill="white"/>
<path d="M88.401 20.0768C17.9745 88.65 20.5829 87.5586 17.9745 89.9232" stroke="white" stroke-width="5"/>
</g>
<defs>
<clipPath id="clip0_2001_6">
<rect width="352" height="110" fill="white"/>
</clipPath>
</defs>
</svg>
