<svg width="14" height="15" viewBox="0 0 14 15" fill="none" xmlns="http://www.w3.org/2000/svg">
<g clip-path="url(#clip0_4102_2900)">
<path d="M10.3385 2.55559C10.6053 2.41731 10.7902 2.12551 10.7902 1.78684C10.7902 1.56058 10.7063 1.34358 10.557 1.18359C10.4076 1.0236 10.2051 0.933716 9.99393 0.933716C9.78275 0.933716 9.58022 1.0236 9.43089 1.18359C9.28157 1.34358 9.19768 1.56058 9.19768 1.78684C9.19768 2.1302 9.3869 2.42434 9.65924 2.56028C9.34424 4.3884 8.8608 5.74895 7.06158 6.03958C7.06158 6.03958 7.54612 8.63528 9.81237 8.63528C12.0786 8.63528 12.3083 6.06536 12.3083 6.06536C10.4697 6.16614 10.3144 3.68997 10.3385 2.55559Z" fill="#F19534"/>
<path d="M3.79987 2.55559C3.53299 2.41731 3.34815 2.12551 3.34815 1.78684C3.34815 1.56058 3.43204 1.34358 3.58136 1.18359C3.73069 1.0236 3.93322 0.933716 4.1444 0.933716C4.35558 0.933716 4.5581 1.0236 4.70743 1.18359C4.85676 1.34358 4.94065 1.56058 4.94065 1.78684C4.94065 2.1302 4.75143 2.42434 4.47908 2.56028C4.79408 4.3884 5.27752 5.74895 7.07674 6.03958C7.07674 6.03958 6.59221 8.63528 4.32596 8.63528C2.05971 8.63528 1.83112 6.06653 1.83112 6.06653C3.66862 6.16614 3.82393 3.68997 3.79987 2.55559Z" fill="#F19534"/>
<path d="M9.78168 8.63571C9.79152 8.63571 9.80136 8.63688 9.81121 8.63688C10.4357 8.63688 10.905 8.44117 11.2571 8.15875L9.78168 8.63571Z" fill="#FFCA28"/>
<path d="M13.0424 1.97526C12.6782 1.92253 12.3304 2.29401 12.2669 2.80261C12.2276 3.12019 12.3074 3.41667 12.4616 3.60769L12.1991 4.7737C12.1991 4.7737 11.7977 7.52878 9.76991 8.07253C8.14897 8.50729 7.56163 5.328 7.41944 4.34597C7.72788 4.1819 7.94116 3.84206 7.94116 3.44714C7.94116 2.89284 7.52225 2.44401 7.00491 2.44401C6.48756 2.44401 6.06866 2.89284 6.06866 3.44714C6.06866 3.8444 6.28522 4.18776 6.59913 4.34948C6.48647 5.31862 5.98991 8.39245 4.23991 8.07136C2.46366 7.7444 1.68819 4.53933 1.50881 3.66745C1.72209 3.47995 1.84131 3.14948 1.79756 2.7944C1.73413 2.28464 1.35788 1.91901 0.957563 1.97644C0.557251 2.03386 0.284907 2.49323 0.348344 3.00183C0.394282 3.37214 0.606469 3.66628 0.872251 3.77761L2.2635 13.0389C2.2635 13.0389 3.47756 14.0667 7.00491 14.0667C10.5323 14.0667 11.7463 13.0389 11.7463 13.0389L13.1408 3.753C13.3662 3.62644 13.5433 3.34167 13.5871 2.99245C13.6516 2.48269 13.4077 2.028 13.0424 1.97526Z" fill="#FFCA28"/>
<path d="M7.04829 11.7085C7.63664 11.7085 8.1136 11.0993 8.1136 10.3479C8.1136 9.5965 7.63664 8.98737 7.04829 8.98737C6.45993 8.98737 5.98297 9.5965 5.98297 10.3479C5.98297 11.0993 6.45993 11.7085 7.04829 11.7085Z" fill="#26A69A"/>
<path d="M7.04892 9.32321C7.09048 9.37243 7.12767 9.46266 7.04892 9.63845C6.97017 9.81423 6.54579 10.0521 6.46814 10.1002C6.39048 10.1494 6.33907 10.1271 6.31501 10.1072C6.20017 10.0088 6.24392 9.7861 6.31829 9.65016C6.47798 9.35602 6.81595 9.05251 7.04892 9.32321Z" fill="#69F0AE"/>
<path d="M6.96983 10.8554C6.84952 10.9175 6.45467 11.1062 6.58483 11.33C6.66139 11.4624 6.81999 11.5187 6.96545 11.5257C7.11092 11.5327 7.2542 11.4835 7.38327 11.412C7.99577 11.0722 8.04499 10.1792 7.92577 10.1113C7.80327 10.041 7.72014 10.2226 7.6567 10.2999C7.46381 10.5314 7.23046 10.7201 6.96983 10.8554Z" fill="#00796B"/>
<path d="M12.9158 9.23416C13.0864 8.22283 12.452 7.96971 12.452 7.96971C12.452 7.96971 12.043 7.89002 11.8505 9.02791C11.658 10.1646 12.067 10.2443 12.067 10.2443C12.067 10.2443 12.7441 10.2455 12.9158 9.23416Z" fill="#26A69A"/>
<path d="M12.6345 8.31533C12.7832 8.52861 12.6071 8.84385 12.3217 9.05362C12.2375 9.11572 12.1259 9.09229 12.1095 9.04072C12.0636 8.89307 12.0832 8.72549 12.1445 8.58369C12.3261 8.1583 12.559 8.20752 12.6345 8.31533Z" fill="#69F0AE"/>
<path d="M1.06692 9.26486C0.8952 8.25471 1.53067 8.00041 1.53067 8.00041C1.53067 8.00041 1.93973 7.92072 2.13223 9.05861C2.32473 10.1953 1.91567 10.275 1.91567 10.275C1.91567 10.275 1.23754 10.2762 1.06692 9.26486Z" fill="#26A69A"/>
<path d="M1.72581 8.34396C1.87237 8.46115 1.81221 8.61466 1.70174 8.72131C1.57596 8.84435 1.47971 8.97912 1.37252 9.11857C1.35612 9.13966 1.33752 9.1631 1.31127 9.16896C1.26096 9.18068 1.22049 9.1256 1.20409 9.07287C1.15706 8.92521 1.16581 8.75177 1.23581 8.61584C1.43487 8.22795 1.66893 8.29826 1.72581 8.34396Z" fill="#69F0AE"/>
<path d="M10.9365 10.214C10.861 10.6746 10.5165 10.9945 10.1654 10.9289C9.81428 10.8632 9.76616 10.4707 9.84163 10.0101C9.91709 9.54956 10.0866 9.19683 10.4366 9.26246C10.7877 9.32808 11.0119 9.75464 10.9365 10.214Z" fill="#F44336"/>
<path d="M3.32785 10.214C3.40331 10.6746 3.74785 10.9945 4.09894 10.9289C4.45003 10.8632 4.49816 10.4707 4.42269 10.0101C4.34722 9.54956 4.17769 9.19683 3.82769 9.26246C3.47769 9.32808 3.25347 9.75464 3.32785 10.214Z" fill="#F44336"/>
<path d="M3.83743 9.90699C3.75759 10.0031 3.5629 10.1964 3.49399 10.0488C3.39993 9.84723 3.53009 9.54254 3.67884 9.44176C3.82759 9.34098 3.94899 9.42066 3.96977 9.5109C3.99493 9.62574 3.90853 9.82027 3.83743 9.90699Z" fill="#FFA8A4"/>
<path d="M10.0599 10.2007C9.95162 10.1831 9.93959 9.78352 10.2305 9.46946C10.3694 9.31946 10.5685 9.49758 10.5182 9.73782C10.4701 9.96633 10.2579 10.2335 10.0599 10.2007Z" fill="#FFA8A4"/>
<path d="M11.9378 11.5085C11.2826 11.8601 9.77979 12.7964 7.00494 12.7964C4.2301 12.7964 2.72729 11.8601 2.07213 11.5085C2.07213 11.5085 1.83698 11.6433 1.83698 11.7839V12.8632C1.83698 13.0074 1.90807 13.1398 2.02401 13.2136C2.53588 13.5371 4.09557 14.3011 7.00604 14.3011C9.9165 14.3011 11.4762 13.5371 11.9881 13.2136C12.045 13.1777 12.0922 13.1264 12.125 13.065C12.1578 13.0036 12.175 12.934 12.1751 12.8632V11.7839C12.1729 11.6433 11.9378 11.5085 11.9378 11.5085Z" fill="#FFCA28"/>
<path d="M4.33066 12.9893C4.63691 13.0537 4.72988 13.0818 4.70909 13.2646C4.66644 13.6244 3.96972 13.5389 3.55738 13.4228C2.70534 13.1826 2.53253 12.9295 2.53253 12.7033C2.53253 12.4959 2.68128 12.4713 2.91097 12.558C3.1855 12.6623 3.60988 12.8381 4.33066 12.9893Z" fill="#FFF59D"/>
<path d="M11.9387 11.7457C11.9387 11.7457 10.1264 12.8449 7.00593 12.8449C3.88546 12.8449 2.07312 11.7457 2.07312 11.7457" stroke="#F19534" stroke-miterlimit="10" stroke-linecap="round"/>
<path d="M2.94995 5.80868C3.53183 5.36337 3.84464 4.56532 3.87198 3.29501C3.87417 3.18017 3.90479 3.14618 3.96276 3.13915C4.05573 3.12861 4.07104 3.21884 4.06995 3.28329C4.0437 4.65439 3.88073 5.51103 3.23542 5.99384C3.2037 6.01728 2.97729 6.16493 2.88104 6.06298C2.7662 5.94345 2.91276 5.83681 2.94995 5.80868Z" fill="#FFCA28"/>
<path d="M3.48323 1.82106C3.46464 1.60895 3.51058 1.22692 4.03011 1.05348C4.18214 1.00309 4.2762 1.08278 4.2937 1.14489C4.33745 1.29957 4.21058 1.36051 4.15261 1.38043C3.75339 1.51871 3.7337 1.732 3.65167 1.86793C3.56964 2.00387 3.48979 1.88551 3.48323 1.82106Z" fill="#FFCA28"/>
<path d="M8.5543 5.52765C9.0804 5.02726 9.4293 4.46828 9.65899 3.19562C9.67977 3.08312 9.7104 3.05265 9.76727 3.05499C9.86024 3.05734 9.86462 3.14992 9.85477 3.2132C9.66008 4.57023 9.47524 4.95695 8.82665 5.72687C8.75336 5.81359 8.57508 5.8921 8.47446 5.80187C8.38368 5.72101 8.48868 5.59093 8.5543 5.52765Z" fill="#FFCA28"/>
<path d="M9.33046 1.83162C9.31187 1.61951 9.3578 1.23748 9.87734 1.06404C10.0294 1.01365 10.1234 1.09334 10.1409 1.15545C10.1847 1.31013 10.0578 1.37107 9.99983 1.39099C9.60062 1.52927 9.58093 1.74255 9.4989 1.87849C9.41796 2.01443 9.33702 1.89607 9.33046 1.83162Z" fill="#FFCA28"/>
<path d="M3.45447 8.39246C2.18353 7.77488 1.80947 6.16355 1.61041 5.46394C1.58416 5.37136 1.59728 5.28347 1.68369 5.25535C1.7701 5.22722 1.8215 5.28699 1.84885 5.37957C1.99322 5.88699 2.55432 7.58152 3.7126 8.06316C3.79682 8.09831 3.92807 8.18386 3.85697 8.33035C3.80994 8.42527 3.659 8.49207 3.45447 8.39246Z" fill="#FFF59D"/>
<path d="M1.38719 2.88615C1.32594 2.75021 1.30079 2.6213 0.967194 2.47247C0.882976 2.43497 0.827194 2.35177 0.850163 2.25802C0.873132 2.16427 0.960632 2.09396 1.08751 2.1174C1.49985 2.19357 1.58954 2.6424 1.60704 2.79826C1.62344 2.94826 1.44954 3.02208 1.38719 2.88615Z" fill="#FFF59D"/>
<path d="M10.5955 8.39246C11.8664 7.77488 12.2405 6.16355 12.4395 5.46394C12.4658 5.37136 12.4527 5.28347 12.3663 5.25535C12.2799 5.22722 12.2284 5.28699 12.2011 5.37957C12.0567 5.88699 11.4956 7.58152 10.3374 8.06316C10.2531 8.09831 10.1219 8.18386 10.193 8.33035C10.24 8.42527 10.3909 8.49207 10.5955 8.39246Z" fill="#FFF59D"/>
<path d="M12.6636 2.88615C12.7248 2.75021 12.75 2.6213 13.0836 2.47247C13.1678 2.43497 13.2236 2.35177 13.2006 2.25802C13.1776 2.16427 13.0901 2.09396 12.9632 2.1174C12.5509 2.19357 12.4612 2.6424 12.4437 2.79826C12.4273 2.94826 12.6023 3.02208 12.6636 2.88615Z" fill="#FFF59D"/>
<path d="M6.49462 3.46347C6.56134 3.31699 6.67837 3.1166 7.06009 3.03222C7.20665 2.99941 7.24931 2.93144 7.23618 2.82832C7.20993 2.61386 6.96056 2.6291 6.82603 2.66308C6.37759 2.77558 6.27806 3.20214 6.25946 3.37089C6.24087 3.53144 6.429 3.60996 6.49462 3.46347Z" fill="#FFF59D"/>
</g>
<defs>
<clipPath id="clip0_4102_2900">
<rect width="14" height="15" fill="white"/>
</clipPath>
</defs>
</svg>
