<svg width="20" height="20" viewBox="0 0 20 20" fill="none" xmlns="http://www.w3.org/2000/svg">
<path opacity="0.4" d="M11.3042 3.88243V4.06547C10.8135 4.05584 10.3228 4.05584 9.83214 4.05584V3.89206C9.83214 3.22733 9.27277 2.68784 8.60545 2.68784H7.63391C6.52498 2.68784 5.62213 1.80152 5.62213 0.722536C5.62213 0.32755 5.95579 0 6.35815 0C6.77032 0 7.09416 0.32755 7.09416 0.722536C7.09416 1.01155 7.3395 1.24276 7.63391 1.24276H8.60545C10.0873 1.2524 11.2944 2.43736 11.3042 3.88243" fill="#959895"/>
<path fill-rule="evenodd" clip-rule="evenodd" d="M13.1631 4.08267C13.4782 4.08699 13.794 4.09132 14.111 4.09457C17.5163 4.09457 19.9991 6.52229 19.9991 9.87486V14.1812C19.9991 17.5337 17.5163 19.9615 14.111 19.9615C12.7469 19.9904 11.3828 20 10.0089 20C8.635 20 7.25129 19.9904 5.88721 19.9615C2.48191 19.9615 -0.000915527 17.5337 -0.000915527 14.1812V9.87486C-0.000915527 6.52229 2.48191 4.09457 5.89702 4.09457C7.1826 4.0753 8.49761 4.05603 9.83225 4.05603C10.3229 4.05603 10.8136 4.05603 11.3043 4.06566C11.9229 4.06566 12.5416 4.07415 13.1631 4.08267ZM8.8509 12.7457H7.82048V13.7669C7.82048 14.1619 7.48682 14.4895 7.08446 14.4895C6.67229 14.4895 6.34845 14.1619 6.34845 13.7669V12.7457H5.30821C4.90586 12.7457 4.5722 12.4278 4.5722 12.0232C4.5722 11.6282 4.90586 11.3007 5.30821 11.3007H6.34845V10.2891C6.34845 9.89412 6.67229 9.56657 7.08446 9.56657C7.48682 9.56657 7.82048 9.89412 7.82048 10.2891V11.3007H8.8509C9.25326 11.3007 9.58692 11.6282 9.58692 12.0232C9.58692 12.4278 9.25326 12.7457 8.8509 12.7457ZM13.0217 11.1176H13.1198C13.5221 11.1176 13.8558 10.7997 13.8558 10.3951C13.8558 10.0001 13.5221 9.67255 13.1198 9.67255H13.0217C12.6095 9.67255 12.2856 10.0001 12.2856 10.3951C12.2856 10.7997 12.6095 11.1176 13.0217 11.1176ZM14.6998 14.4317H14.7979C15.2003 14.4317 15.5339 14.1137 15.5339 13.7091C15.5339 13.3141 15.2003 12.9866 14.7979 12.9866H14.6998C14.2876 12.9866 13.9638 13.3141 13.9638 13.7091C13.9638 14.1137 14.2876 14.4317 14.6998 14.4317Z" fill="#959895"/>
</svg>
