<svg width="65" height="64" viewBox="0 0 65 64" fill="none" xmlns="http://www.w3.org/2000/svg">
<path fill-rule="evenodd" clip-rule="evenodd" d="M8.85578 31.6401C17.5347 41.0207 27.8534 49.4816 39.2319 57.5011C48.7685 64.2331 61.585 53.2339 52.7295 46.134L22.3535 20.273C14.0782 14.0193 1.23653 23.3999 8.85578 31.6401Z" fill="#B96137"/>
<path fill-rule="evenodd" clip-rule="evenodd" d="M8.62493 29.9109C17.5813 39.6962 28.2533 48.525 39.9597 56.6181C49.5469 63.2397 62.3129 52.3508 53.4574 45.251L22.1226 18.5438C13.8474 12.2901 1.03091 21.5971 8.62493 29.9109Z" fill="#E47B06"/>
<path fill-rule="evenodd" clip-rule="evenodd" d="M8.76912 28.0714C17.8517 37.7096 28.7003 46.5016 40.4067 54.8522C49.9181 61.6577 62.7598 50.5849 53.9044 43.4851L22.292 16.7044C13.9916 10.4506 1.09941 19.9416 8.76912 28.0714Z" fill="#F6D290"/>
<path fill-rule="evenodd" clip-rule="evenodd" d="M4.71903 19.9784C6.23279 19.7209 7.4438 19.7209 5.95527 19.8313C5.5516 19.868 4.36582 22.1856 4.79472 22.3695C5.2993 22.5903 6.08141 22.4063 6.35894 22.0385C7.84747 20.1991 6.1571 22.7006 5.80389 23.7306C5.60206 24.3192 5.24885 24.4664 5.27408 24.5767C5.34976 24.871 7.56994 23.4731 7.84747 22.9581C8.4782 21.8177 7.94838 22.296 6.98967 23.6203C6.66169 24.0617 6.08141 24.7239 6.13187 24.9446C6.18233 25.0918 7.89792 24.871 8.42774 24.4296C9.71443 23.326 8.93233 24.0985 7.49425 25.0918C6.66169 25.6803 6.1571 26.1586 6.30848 26.2689C6.56077 26.4896 8.37728 26.1954 7.99884 25.4964C7.89792 25.3125 8.30159 29.1383 8.50343 28.7704C8.80618 28.2554 9.10893 27.4829 9.5126 26.3425C9.89104 26.4161 9.15939 28.5497 9.36122 28.3658C11.2534 26.4896 9.76489 29.359 10.2442 29.0279C12.2374 27.4829 15.0883 25.4596 16.9805 23.9882C17.4094 23.6571 18.2167 23.0317 18.3176 22.4799C18.3933 22.0385 18.5699 21.6338 18.6204 21.1556C18.6456 20.8613 18.7213 19.5738 18.7465 19.6473C17.0057 16.778 15.5676 17.293 12.9942 18.0287C10.8245 18.6541 9.33599 18.4702 7.21673 18.2126C5.9805 18.0655 4.54242 18.2126 4.71903 19.9784Z" fill="#699B42"/>
<path fill-rule="evenodd" clip-rule="evenodd" d="M4.71227 19.9788C5.09071 18.1027 6.17557 18.8384 5.57007 19.7581C5.31778 20.1627 4.23291 21.4871 4.5609 22.1124C4.7375 22.4803 4.91411 22.5171 5.19163 22.1492C6.68016 20.3099 5.7719 22.6275 5.39346 23.6575C4.63658 25.7175 5.72144 23.9886 6.12511 23.2896C6.75585 22.1492 7.56318 22.2596 6.57924 23.5839C6.04942 24.2829 5.49438 25.6808 6.78108 24.5772C8.06777 23.4736 8.5219 24.0621 7.10906 25.0554C5.21686 26.3797 6.47832 26.9315 7.58841 25.46C7.71456 25.3129 8.34529 30.6102 8.62282 28.1822C8.6985 27.5201 8.06777 26.1958 8.74896 26.3429C9.1274 26.4165 9.20309 29.6537 9.45538 27.9247C9.88428 25.0186 9.85905 29.5801 10.2375 29.0283C11.5746 27.0419 14.7031 25.3497 16.5953 23.915C17.0242 23.5839 17.8315 22.9585 17.9324 22.4067C18.0081 21.9653 18.1847 21.5606 18.2352 21.0824C18.2604 20.7881 18.3361 19.5006 18.3613 19.5742C16.6205 16.7784 15.1824 17.2566 12.6343 17.9923C10.4646 18.6177 8.97603 18.4338 6.85676 18.1763C5.5953 17.9923 4.53567 18.2131 4.71227 19.9788Z" fill="#99CC33"/>
<path fill-rule="evenodd" clip-rule="evenodd" d="M5.77023 18.5811C7.46059 18.2501 8.44454 18.8386 9.55463 18.949C9.9583 18.9858 10.4377 18.8754 10.8413 18.9122C11.1188 18.949 11.5225 18.8019 10.9675 18.9858C9.42848 19.5008 8.04087 19.0594 6.57757 19.4272C5.97207 19.5744 5.36656 20.678 5.61886 20.0894C5.745 19.7215 6.07298 18.7651 5.77023 18.5811Z" fill="#D1DB39"/>
<path fill-rule="evenodd" clip-rule="evenodd" d="M6.12914 21.3397C6.81033 20.8247 7.54198 20.7511 8.02133 20.604C9.00528 20.2729 9.98922 19.9418 10.9479 19.5372C12.058 19.0589 10.0145 20.0522 9.78739 20.1625C8.82867 20.6408 8.32409 20.8615 7.36537 21.4501C7.18877 21.5604 6.33097 22.2594 6.17959 22.2962C6.07868 22.0019 6.30574 21.5236 6.12914 21.3397Z" fill="#D1DB39"/>
<path fill-rule="evenodd" clip-rule="evenodd" d="M7.11074 22.4069C7.81716 21.9286 8.52358 21.7815 9.00294 21.5976C9.23 21.524 9.43184 21.3401 9.63367 21.2665C9.83551 21.1561 10.0373 21.0825 9.70936 21.3033C9.12909 21.7447 8.57404 22.2229 8.019 22.6276L6.9846 23.4001C6.88368 23.4737 7.33781 22.6276 7.11074 22.4069Z" fill="#D1DB39"/>
<path fill-rule="evenodd" clip-rule="evenodd" d="M8.60117 26.2323C8.90392 25.9012 9.25713 25.6805 9.58511 25.3494L11.8053 22.9583L12.5369 22.1858L12.108 22.7376L9.33282 26.2323C8.72731 26.9313 9.20667 26.0852 8.60117 26.2323Z" fill="#D1DB39"/>
<path fill-rule="evenodd" clip-rule="evenodd" d="M9.78412 26.7842C10.0364 26.5635 10.5158 26.306 10.7176 26.0117C11.1717 25.4599 11.5754 25.092 12.1052 24.577C12.8873 23.8781 11.2222 25.7542 10.9951 26.0853C10.7933 26.4164 10.5915 26.9314 10.4401 27.2992C10.2382 27.8143 10.1878 27.8143 10.0869 27.2625C10.0616 27.1153 9.6832 26.7842 9.78412 26.7842Z" fill="#D1DB39"/>
<path fill-rule="evenodd" clip-rule="evenodd" d="M7.71321 25.3864C8.2178 24.761 9.02514 24.5771 9.45403 23.8782C9.73156 23.4367 10.2614 23.2896 10.6146 23.0689C10.9678 22.8481 10.3623 23.4367 10.2866 23.4735C9.65587 24.0989 8.94945 25.0553 8.41963 25.8279C8.24303 26.0854 8.19257 26.3429 8.06642 25.7543C8.01596 25.6071 7.68798 25.3864 7.71321 25.3864Z" fill="#D1DB39"/>
<path fill-rule="evenodd" clip-rule="evenodd" d="M9.36066 29.2122C10.7987 28.5133 11.9845 28.1822 10.5464 28.6972C10.1428 28.8444 9.33543 31.4562 9.76433 31.493C10.2689 31.5298 11.0258 31.1251 11.2529 30.7205C12.4639 28.4765 11.1519 31.4194 10.9501 32.5598C10.824 33.1852 10.496 33.4427 10.5464 33.5531C10.6726 33.8106 12.6405 31.7873 12.8423 31.1987C13.2964 29.9112 12.8675 30.4998 12.0854 32.1184C11.8331 32.6334 11.3538 33.4427 11.4295 33.6634C11.5052 33.8106 13.1451 33.0748 13.5992 32.4862C14.7093 31.0516 14.0533 32.008 12.7918 33.4059C12.0602 34.2152 11.6313 34.8406 11.7827 34.9142C12.0602 35.0613 13.801 34.2152 13.3217 33.6634C13.1955 33.5163 14.129 37.1214 14.2804 36.6799C14.5074 36.0913 14.684 35.2453 14.9363 33.9945C15.3148 33.9577 14.8859 36.2753 15.0625 36.0178C16.6519 33.5899 15.5923 36.9007 16.0212 36.3856C17.762 34.2888 20.2597 31.4562 21.8996 29.4697C22.2781 29.0283 22.9845 28.1454 23.0097 27.5936C23.0349 27.1522 23.1359 26.7107 23.1106 26.1957C23.1106 25.9014 22.9845 24.6139 23.0097 24.6875C20.9157 22.4435 19.5785 23.3631 17.1817 24.8714C15.1382 26.1221 13.6749 26.4164 11.5556 26.7843C10.3194 26.9682 8.93176 27.5568 9.36066 29.2122Z" fill="#699B42"/>
<path fill-rule="evenodd" clip-rule="evenodd" d="M9.35601 29.2147C9.45693 27.3018 10.6175 27.6329 10.1634 28.7365C9.96152 29.2147 9.10372 30.7965 9.50739 31.3115C9.73445 31.6058 9.91106 31.6058 10.1381 31.1644C11.3491 28.9204 10.7941 31.4587 10.567 32.5991C10.1129 34.8431 10.9202 32.8566 11.223 32.0105C11.6771 30.723 12.4844 30.5758 11.7023 32.1576C11.2734 33.0037 10.9202 34.512 12.0303 33.0773C13.1404 31.6426 13.6702 32.0473 12.4088 33.4452C10.7436 35.3213 12.0555 35.4684 12.9386 33.7027C13.0395 33.5187 14.4019 38.5217 14.3262 36.057C14.301 35.3949 13.5188 34.2545 14.2 34.2177C14.5785 34.1809 15.1083 37.3078 15.1083 35.542C15.1335 32.5623 15.739 37.0503 16.0418 36.3881C17.0762 34.0705 19.9019 31.4955 21.5418 29.509C21.9202 29.0676 22.6266 28.1847 22.6519 27.6329C22.6771 27.1914 22.778 26.75 22.7528 26.235C22.7528 25.9407 22.6266 24.6532 22.6519 24.7267C20.5578 22.4827 19.2207 23.3656 16.8239 24.8739C14.7803 26.1246 13.317 26.4189 11.1978 26.7868C9.93629 27.0075 8.92712 27.5593 9.35601 29.2147Z" fill="#99CC33"/>
<path fill-rule="evenodd" clip-rule="evenodd" d="M10.2143 27.5197C11.829 26.7104 12.8634 26.9679 13.9735 26.784C14.3772 26.7104 14.8313 26.4529 15.2097 26.3425C15.4873 26.2689 15.8657 26.0114 15.3359 26.3793C13.8978 27.3358 12.485 27.299 11.0974 28.1083C10.5171 28.4394 10.0882 29.6901 10.2396 29.0279C10.3405 28.6233 10.5171 27.63 10.2143 27.5197Z" fill="#D1DB39"/>
<path fill-rule="evenodd" clip-rule="evenodd" d="M10.9182 30.1316C11.5237 29.4326 12.2301 29.1383 12.6843 28.844C13.5925 28.2555 14.526 27.6301 15.409 26.9311C16.4182 26.1586 14.5765 27.7037 14.3494 27.8876C13.4916 28.6601 13.0122 28.9912 12.1797 29.8373C12.0283 29.9844 11.2714 30.9409 11.1453 31.0145C10.9687 30.7937 11.1453 30.2787 10.9182 30.1316Z" fill="#D1DB39"/>
<path fill-rule="evenodd" clip-rule="evenodd" d="M12.0589 30.8673C12.6896 30.2052 13.3708 29.8373 13.7997 29.5062C14.0016 29.3591 14.1782 29.1383 14.38 28.9912C14.5566 28.8441 14.7585 28.6601 14.4557 29.028C13.9511 29.6166 13.4718 30.2419 12.9924 30.8305L12.0589 31.8973C11.9832 32.0077 12.3112 31.0513 12.0589 30.8673Z" fill="#D1DB39"/>
<path fill-rule="evenodd" clip-rule="evenodd" d="M14.0239 34.1787C14.2762 33.7741 14.6042 33.443 14.8565 33.0016L16.6982 29.985L17.3037 29.0286L16.9505 29.6908L14.7051 33.958C14.2762 34.8409 14.6042 33.8477 14.0239 34.1787Z" fill="#D1DB39"/>
<path fill-rule="evenodd" clip-rule="evenodd" d="M15.2865 34.3621C15.5136 34.0678 15.9425 33.6632 16.0938 33.3321C16.447 32.6699 16.8003 32.1549 17.2544 31.5295C17.9103 30.6099 16.548 32.9274 16.3714 33.3321C16.22 33.7 16.0938 34.2885 15.9929 34.6932C15.8668 35.2818 15.8415 35.2818 15.6397 34.7668C15.5892 34.6196 15.1856 34.3989 15.2865 34.3621Z" fill="#D1DB39"/>
<path fill-rule="evenodd" clip-rule="evenodd" d="M13.0673 33.6266C13.471 32.8541 14.2279 32.4494 14.5558 31.6401C14.7577 31.0883 15.2623 30.794 15.565 30.4997C15.8678 30.1686 15.3632 30.9412 15.3127 31.0147C14.7829 31.7872 14.2279 32.9644 13.799 33.8841C13.6728 34.1784 13.6476 34.4727 13.4458 33.9209C13.3701 33.7737 13.0421 33.6266 13.0673 33.6266Z" fill="#D1DB39"/>
<path fill-rule="evenodd" clip-rule="evenodd" d="M16.5081 33.2584C17.9462 32.5595 19.132 32.2284 17.6939 32.7434C17.2902 32.8906 16.4829 35.5024 16.9118 35.5392C17.4164 35.576 18.1733 35.1713 18.4003 34.7667C19.6113 32.5227 18.2994 35.4656 18.0976 36.606C17.9714 37.2314 17.6434 37.4889 17.6939 37.5993C17.8201 37.8568 19.7879 35.8335 19.9898 35.2449C20.4439 33.9574 20.015 34.546 19.2329 36.1646C18.9806 36.6796 18.5012 37.4889 18.5769 37.7096C18.6526 37.8568 20.2925 37.121 20.7467 36.5324C21.8567 35.0978 21.2008 36.0542 19.9393 37.4521C19.2077 38.2614 18.7788 38.8868 18.9301 38.9604C19.2077 39.1075 20.9485 38.2614 20.4691 37.7096C20.343 37.5625 21.2765 41.1676 21.4278 40.7261C21.6549 40.1375 21.8315 39.2914 22.0838 38.0407C22.4622 38.0039 22.0333 40.3215 22.21 40.064C23.7994 37.636 22.7398 40.9468 23.1687 40.4318C24.9095 38.335 27.4072 35.5024 29.0471 33.5159C29.4255 33.0745 30.132 32.1916 30.1572 31.6398C30.1824 31.1984 30.2833 30.7569 30.2581 30.2419C30.2581 29.9476 30.132 28.6601 30.1572 28.7337C28.0631 26.4897 26.726 27.4093 24.3292 28.9176C22.2856 30.1683 20.8223 30.4626 18.7031 30.8305C17.4668 31.0144 16.0792 31.5662 16.5081 33.2584Z" fill="#699B42"/>
<path fill-rule="evenodd" clip-rule="evenodd" d="M16.5025 33.2678C16.6034 31.3549 17.764 31.6859 17.3099 32.7895C17.108 33.2678 16.2502 34.8496 16.6539 35.3646C16.881 35.6589 17.0576 35.6589 17.2846 35.2174C18.4956 32.9735 17.9406 35.5117 17.7135 36.6521C17.2594 38.8961 18.0667 36.9096 18.3695 36.0635C18.8236 34.776 19.631 34.6289 18.8489 36.2107C18.42 37.0568 18.0667 38.565 19.1768 37.1304C20.2869 35.6957 20.8167 36.1003 19.5553 37.4982C17.8901 39.3743 19.2021 39.5215 20.0851 37.7557C20.186 37.5718 21.5484 42.5748 21.4727 40.1101C21.4475 39.4479 20.6654 38.3075 21.3466 38.2707C21.725 38.234 22.2548 41.3608 22.2548 39.5951C22.28 36.6153 22.8855 41.1033 23.1883 40.4412C24.2227 38.1236 27.0484 35.5485 28.6883 33.562C29.0667 33.1206 29.7731 32.2377 29.7984 31.6859C29.8236 31.2445 29.9245 30.803 29.8993 30.288C29.8993 29.9937 29.7731 28.7062 29.7984 28.7798C27.7043 26.5358 26.3672 27.4555 23.9704 28.9637C21.9268 30.2145 20.4635 30.5088 18.3443 30.8766C17.0828 31.0606 16.0736 31.5756 16.5025 33.2678Z" fill="#99CC33"/>
<path fill-rule="evenodd" clip-rule="evenodd" d="M17.3599 31.5662C18.9746 30.7569 20.009 31.0144 21.1191 30.8304C21.5227 30.7569 21.9768 30.4993 22.3553 30.389C22.6328 30.3154 23.0112 30.0579 22.4814 30.4258C21.0434 31.3822 19.6305 31.3454 18.2429 32.1548C17.6626 32.4858 17.2337 33.7366 17.3851 33.0744C17.486 32.6698 17.6626 31.6765 17.3599 31.5662Z" fill="#D1DB39"/>
<path fill-rule="evenodd" clip-rule="evenodd" d="M18.0558 34.1778C18.6613 33.4789 19.3677 33.1846 19.8218 32.8903C20.7301 32.3017 21.6636 31.6763 22.5466 30.9774C23.5558 30.2049 21.714 31.7499 21.487 31.9338C20.6292 32.7063 20.1498 33.0374 19.292 33.8835C19.1407 34.0307 18.3838 34.9871 18.2576 35.0607C18.1063 34.84 18.2576 34.2882 18.0558 34.1778Z" fill="#D1DB39"/>
<path fill-rule="evenodd" clip-rule="evenodd" d="M19.1729 34.9134C19.8037 34.2513 20.4849 33.8834 20.9138 33.5523C21.1156 33.4052 21.2922 33.1845 21.494 33.0373C21.6706 32.8902 21.8725 32.7062 21.5697 33.0741C21.0651 33.6627 20.5858 34.2881 20.1064 34.8766L19.1982 35.9067C19.0972 36.017 19.4505 35.0606 19.1729 34.9134Z" fill="#D1DB39"/>
<path fill-rule="evenodd" clip-rule="evenodd" d="M21.1575 38.2244C21.4098 37.8198 21.7378 37.4887 21.9901 37.0473L23.8318 34.0308L24.4373 33.0743L24.0841 33.7365L21.8387 38.0037C21.4098 38.8866 21.7378 37.8934 21.1575 38.2244Z" fill="#D1DB39"/>
<path fill-rule="evenodd" clip-rule="evenodd" d="M22.4261 38.4085C22.6532 38.1142 23.0821 37.7095 23.2334 37.3784C23.5867 36.7163 23.9399 36.2012 24.394 35.5759C25.05 34.6562 23.6876 36.9738 23.511 37.3784C23.3596 37.7463 23.2334 38.3349 23.1325 38.7395C23.0064 39.3281 22.9812 39.3281 22.7793 38.8131C22.7289 38.6292 22.3 38.4085 22.4261 38.4085Z" fill="#D1DB39"/>
<path fill-rule="evenodd" clip-rule="evenodd" d="M20.2109 37.6362C20.6145 36.8637 21.3714 36.459 21.6994 35.6497C21.9012 35.0979 22.4058 34.8036 22.7086 34.5093C23.0113 34.1783 22.5067 34.9508 22.4563 35.0243C21.9265 35.7969 21.3714 36.974 20.9425 37.8937C20.8164 38.188 20.7911 38.4823 20.5893 37.9305C20.5136 37.7833 20.1856 37.6362 20.2109 37.6362Z" fill="#D1DB39"/>
<path fill-rule="evenodd" clip-rule="evenodd" d="M21.9327 42.3082C23.1185 41.2782 24.1529 40.6896 22.9167 41.5357C22.5887 41.7564 22.4878 44.5522 22.9167 44.4786C23.4212 44.405 24.0267 43.8532 24.1277 43.375C24.6827 40.8735 24.2286 44.1107 24.3043 45.2511C24.3547 45.9133 24.1024 46.2444 24.1781 46.318C24.3547 46.5387 25.7171 44.1107 25.7423 43.4854C25.818 42.0875 25.5657 42.8232 25.263 44.5522C25.1621 45.104 24.9098 46.0237 25.0612 46.2076C25.1621 46.3179 26.5497 45.2143 26.8272 44.5522C27.5084 42.86 27.13 44.0004 26.2974 45.6558C25.818 46.649 25.591 47.348 25.7423 47.3848C26.0199 47.4583 27.4832 46.2444 26.8777 45.8029C26.7263 45.6926 28.568 49.0402 28.5933 48.5987C28.6437 47.9734 28.5933 47.0905 28.5176 45.8029C28.8708 45.6926 29.0726 48.0837 29.1735 47.7526C30.0313 45.0304 29.9052 48.4884 30.1827 47.8998C31.2928 45.4351 32.9075 42.0507 33.9419 39.7331C34.1689 39.1813 34.6231 38.1881 34.4969 37.5995C34.396 37.1581 34.3708 36.6798 34.2194 36.2016C34.1437 35.9073 33.6896 34.6934 33.74 34.7301C31.1666 33.0012 30.1322 34.2151 28.24 36.2016C26.6506 37.8938 25.3134 38.5192 23.396 39.3653C22.2607 39.8803 21.0749 40.7632 21.9327 42.3082Z" fill="#699B42"/>
<path fill-rule="evenodd" clip-rule="evenodd" d="M21.9422 42.3084C21.5385 40.3955 22.7243 40.4691 22.5729 41.6463C22.4973 42.1613 22.1188 43.927 22.6234 44.3685C22.9262 44.626 23.0775 44.5524 23.1784 44.0742C23.7335 41.5727 23.8596 44.2213 23.9606 45.3985C24.1372 47.7161 24.3642 45.5456 24.4399 44.6628C24.5156 43.2649 25.2472 42.9338 24.9445 44.6996C24.7679 45.656 24.8184 47.201 25.4995 45.5456C26.1807 43.8535 26.7862 44.1478 25.9537 45.8399C24.8436 48.0839 26.1555 47.9 26.5339 45.9503C26.5844 45.7664 29.2082 50.3647 28.4766 47.9736C28.2748 47.3114 27.2151 46.3917 27.8711 46.2078C28.2243 46.0974 29.5362 49.0772 29.0821 47.3114C28.3 44.3685 30.0913 48.6725 30.1922 47.9368C30.5706 45.3985 32.5637 42.1981 33.5981 39.8805C33.8252 39.3287 34.2793 38.3355 34.1532 37.7469C34.0523 37.3054 34.027 36.8272 33.8757 36.349C33.8 36.0547 33.3459 34.8407 33.3963 34.8775C30.8229 33.1485 29.7633 34.3625 27.8963 36.349C26.3069 38.0412 24.9697 38.6665 23.0523 39.5126C21.917 39.9909 21.0844 40.7634 21.9422 42.3084Z" fill="#99CC33"/>
<path fill-rule="evenodd" clip-rule="evenodd" d="M22.3028 40.469C23.6147 39.2918 24.6744 39.3286 25.6835 38.8872C26.062 38.7032 26.39 38.3721 26.7432 38.1882C26.9955 38.0778 27.273 37.71 26.8693 38.1882C25.7592 39.4389 24.3968 39.77 23.2867 40.8368C22.8326 41.2783 22.7569 42.6394 22.7317 41.9404C22.7317 41.5358 22.6308 40.5058 22.3028 40.469Z" fill="#D1DB39"/>
<path fill-rule="evenodd" clip-rule="evenodd" d="M23.6557 42.8596C24.0341 42.0502 24.6396 41.6088 24.9929 41.2042C25.6993 40.3948 26.4057 39.5855 27.0869 38.7027C27.8438 37.7094 26.4814 39.6591 26.33 39.8798C25.6993 40.8363 25.3461 41.2777 24.7658 42.3078C24.6649 42.4917 24.1855 43.5953 24.0846 43.7056C23.8828 43.5217 23.908 42.9699 23.6557 42.8596Z" fill="#D1DB39"/>
<path fill-rule="evenodd" clip-rule="evenodd" d="M24.924 43.3377C25.3529 42.5283 25.8828 42.0133 26.236 41.6087C26.3873 41.4247 26.4883 41.1672 26.6396 40.9465C26.7658 40.7626 26.9172 40.5419 26.7153 40.9465C26.3873 41.6455 26.1098 42.3812 25.7818 43.0434L25.1763 44.3309C25.1511 44.478 25.2268 43.448 24.924 43.3377Z" fill="#D1DB39"/>
<path fill-rule="evenodd" clip-rule="evenodd" d="M27.6915 46.1706C27.8177 45.6923 28.0447 45.3245 28.1709 44.8095L29.1296 41.4251L29.4576 40.3583L29.3062 41.094L28.297 45.8027C28.0952 46.7592 28.1709 45.7291 27.6915 46.1706Z" fill="#D1DB39"/>
<path fill-rule="evenodd" clip-rule="evenodd" d="M28.931 46.0603C29.0571 45.7292 29.3599 45.2142 29.4356 44.8463C29.5869 44.1106 29.814 43.522 30.0663 42.7863C30.4447 41.7195 29.7635 44.3313 29.7131 44.7728C29.6626 45.1774 29.6879 45.766 29.7131 46.2074C29.7383 46.796 29.7131 46.8328 29.4103 46.3546C29.3094 46.2442 28.8301 46.1339 28.931 46.0603Z" fill="#D1DB39"/>
<path fill-rule="evenodd" clip-rule="evenodd" d="M26.6354 45.8393C26.812 44.9932 27.4427 44.4047 27.5184 43.5586C27.5689 42.97 27.9725 42.5653 28.1744 42.1975C28.3762 41.7928 28.0987 42.6757 28.0482 42.7493C27.7455 43.6321 27.5184 44.9197 27.367 45.9129C27.3166 46.244 27.367 46.5015 27.039 46.0601C26.9633 45.9129 26.6101 45.8393 26.6354 45.8393Z" fill="#D1DB39"/>
<path fill-rule="evenodd" clip-rule="evenodd" d="M30.9862 46.3181C32.4243 45.6192 33.6101 45.2881 32.172 45.8031C31.7683 45.9502 30.961 48.5621 31.3899 48.5989C31.8945 48.6357 32.6513 48.231 32.8784 47.8264C34.0894 45.5824 32.7775 48.5253 32.5756 49.6657C32.4495 50.2911 32.1215 50.5486 32.172 50.6589C32.2981 50.9164 34.266 48.8932 34.4678 48.3046C34.922 47.017 34.4931 47.6056 33.711 49.2242C33.4587 49.7393 32.9793 50.5486 33.055 50.7693C33.1307 50.9164 34.7706 50.1807 35.2247 49.5921C36.3348 48.1574 35.6789 49.1139 34.4174 50.5118C33.6857 51.3211 33.2568 51.9465 33.4082 52.02C33.6857 52.1672 35.4266 51.3211 34.9472 50.7693C34.8211 50.6221 35.7545 54.2272 35.9059 53.7858C36.133 53.1972 36.3096 52.3511 36.5619 51.1004C36.9403 51.0636 36.5114 53.3811 36.688 53.1236C38.2775 50.6957 37.2178 54.0065 37.6467 53.4915C39.3876 51.3947 41.8853 48.5621 43.5252 46.5756C43.9036 46.1342 44.61 45.2513 44.6353 44.6995C44.6605 44.258 44.7614 43.8166 44.7362 43.3016C44.7362 43.0073 44.61 41.7198 44.6353 41.7933C42.5412 39.5493 41.2041 40.469 38.8073 41.9773C36.7637 43.228 35.3004 43.5223 33.1812 43.8902C31.9449 44.0741 30.5573 44.6259 30.9862 46.3181Z" fill="#699B42"/>
<path fill-rule="evenodd" clip-rule="evenodd" d="M30.983 46.3181C31.0839 44.4052 32.2444 44.7363 31.7903 45.8399C31.5885 46.3181 30.7307 47.8999 31.1343 48.4149C31.3614 48.7092 31.538 48.7092 31.7651 48.2678C32.9761 46.0238 32.421 48.5621 32.194 49.7025C31.7398 51.9465 32.5472 49.96 32.8499 49.1139C33.3041 47.8263 34.1114 47.6792 33.3293 49.261C32.9004 50.1071 32.5472 51.6154 33.6573 50.1807C34.7674 48.746 35.2972 49.1507 34.0357 50.5486C32.3706 52.4247 33.6825 52.5718 34.5655 50.8061C34.6664 50.6221 36.0288 55.6251 35.9531 53.1604C35.9279 52.4982 35.1458 51.3579 35.827 51.3211C36.2054 51.2843 36.7352 54.4112 36.7352 52.6454C36.7605 49.6657 37.366 54.1537 37.6687 53.4915C38.7031 51.1371 41.5288 48.5621 43.1687 46.5756C43.5472 46.1342 44.2536 45.2513 44.2788 44.6995C44.304 44.258 44.405 43.8166 44.3797 43.3016C44.3797 43.0073 44.2536 41.7198 44.2788 41.7933C42.1848 39.5493 40.8476 40.469 38.4508 41.9773C36.4073 43.228 34.944 43.5223 32.8247 43.8902C31.5885 44.1109 30.5541 44.6259 30.983 46.3181Z" fill="#99CC33"/>
<path fill-rule="evenodd" clip-rule="evenodd" d="M31.8405 44.6256C33.4552 43.8163 34.4896 44.0738 35.5997 43.8899C36.0034 43.8163 36.4575 43.5588 36.8359 43.4485C37.1135 43.3749 37.4919 43.1174 36.9621 43.4853C35.524 44.4417 34.1112 44.4049 32.7236 45.2142C32.1433 45.5453 31.7144 46.7961 31.8658 46.1339C31.9667 45.7292 32.1433 44.736 31.8405 44.6256Z" fill="#D1DB39"/>
<path fill-rule="evenodd" clip-rule="evenodd" d="M32.5394 47.2375C33.1449 46.5386 33.8514 46.2443 34.3055 45.95C35.2137 45.3614 36.1472 44.736 37.0302 44.0371C38.0394 43.2645 36.1977 44.8096 35.9706 44.9935C35.1128 45.766 34.6335 46.0971 33.7757 46.9432C33.6243 47.0903 32.8674 48.0468 32.7413 48.1204C32.5899 47.8997 32.7665 47.3479 32.5394 47.2375Z" fill="#D1DB39"/>
<path fill-rule="evenodd" clip-rule="evenodd" d="M33.6732 47.9734C34.3039 47.3112 34.9851 46.9433 35.414 46.6123C35.6158 46.4651 35.7924 46.2444 35.9943 46.0972C36.1709 45.9501 36.3727 45.7662 36.07 46.134C35.5654 46.7226 35.086 47.348 34.6067 47.9366L33.6732 49.0034C33.5975 49.077 33.9255 48.1205 33.6732 47.9734Z" fill="#D1DB39"/>
<path fill-rule="evenodd" clip-rule="evenodd" d="M35.6382 51.2842C35.8905 50.8795 36.2184 50.5484 36.4707 50.107L38.3125 47.0905L38.918 46.134L38.5648 46.7962L36.3194 51.0634C35.8905 51.9463 36.2184 50.9531 35.6382 51.2842Z" fill="#D1DB39"/>
<path fill-rule="evenodd" clip-rule="evenodd" d="M36.9 51.4682C37.127 51.1739 37.5559 50.7692 37.7073 50.4381C38.0605 49.776 38.4137 49.261 38.8679 48.6356C39.5238 47.7159 38.1614 50.0335 37.9848 50.4381C37.8335 50.806 37.7073 51.3946 37.6064 51.7993C37.4803 52.3878 37.455 52.3879 37.2532 51.8728C37.228 51.6889 36.7991 51.4682 36.9 51.4682Z" fill="#D1DB39"/>
<path fill-rule="evenodd" clip-rule="evenodd" d="M34.6875 50.6957C35.0911 49.9232 35.848 49.5186 36.176 48.7093C36.3778 48.1575 36.8824 47.8632 37.1852 47.5689C37.4879 47.2378 36.9833 48.0103 36.9329 48.0839C36.403 48.8564 35.848 50.0336 35.4191 50.9532C35.293 51.2475 35.2677 51.5418 35.0659 50.99C35.0154 50.8429 34.6622 50.6957 34.6875 50.6957Z" fill="#D1DB39"/>
<path fill-rule="evenodd" clip-rule="evenodd" d="M38.4287 54.3744C39.5136 53.0869 40.5228 52.2408 39.3622 53.3812C39.0342 53.6755 39.2613 56.3609 39.6902 56.177C40.1948 55.993 40.7498 55.2941 40.8003 54.8159C41.0778 52.3144 40.9769 55.478 41.2039 56.5448C41.3301 57.1334 41.1283 57.5381 41.2039 57.6116C41.4058 57.7588 42.5159 55.1101 42.4906 54.4848C42.4149 53.1605 42.2383 53.8962 42.1122 55.6252C42.0617 56.177 41.9104 57.1334 42.087 57.2438C42.1879 57.3173 43.4998 55.9195 43.7016 55.2205C44.2062 53.4547 43.9539 54.5951 43.298 56.3977C42.9195 57.4645 42.7429 58.1634 42.9195 58.1634C43.2223 58.1634 44.5594 56.6184 43.8782 56.3609C43.7016 56.2873 45.9723 59.0095 45.9471 58.5313C45.9218 57.9059 45.7957 57.0966 45.5434 55.9195C45.8966 55.7355 46.3759 57.9059 46.4516 57.6116C47.0319 54.7791 47.2842 58.1267 47.5113 57.5013C48.3691 54.8894 49.6558 51.2475 50.4379 48.7461C50.6145 48.1575 50.9425 47.0907 50.7658 46.5756C50.6145 46.171 50.5388 45.7295 50.337 45.3249C50.2108 45.0674 49.6305 44.0374 49.6558 44.0374C46.8301 43.0809 45.8966 44.4788 44.181 46.9067C42.7429 48.9668 41.431 49.8864 39.564 51.174C38.4792 51.9833 37.3691 53.1237 38.4287 54.3744Z" fill="#699B42"/>
<path fill-rule="evenodd" clip-rule="evenodd" d="M38.4235 54.3748C37.7675 52.6458 39.029 52.4251 39.0037 53.5655C39.0037 54.0437 38.8019 55.8462 39.3569 56.1405C39.6849 56.2877 39.8615 56.1773 39.912 55.7359C40.1895 53.2344 40.6436 55.6991 40.8455 56.7659C41.2744 58.8995 41.2744 56.8027 41.2491 55.9566C41.1735 54.6323 41.9051 54.1173 41.779 55.8462C41.7033 56.7659 41.9556 58.2742 42.4349 56.5084C42.9395 54.7426 43.5955 54.853 42.9395 56.6556C42.0565 59.0467 43.3684 58.5685 43.545 56.6188C43.5702 56.4348 46.7744 60.1135 45.7652 58.0167C45.4877 57.4281 44.3019 56.8395 44.9326 56.5084C45.2858 56.3245 46.9762 58.7892 46.295 57.2441C45.1849 54.6691 47.4808 58.2374 47.506 57.5384C47.5817 55.0369 49.2973 51.4686 50.0794 48.9671C50.256 48.3785 50.584 47.3117 50.4074 46.7967C50.256 46.3921 50.1803 45.9506 49.9785 45.546C49.8523 45.2885 49.2721 44.2584 49.2973 44.2584C46.4716 43.302 45.5381 44.6999 43.8225 47.1278C42.3845 49.1879 41.0725 50.1075 39.2056 51.3951C38.1207 52.1676 37.3638 53.124 38.4235 54.3748Z" fill="#99CC33"/>
<path fill-rule="evenodd" clip-rule="evenodd" d="M38.5736 52.5346C39.7846 51.0632 40.8695 50.8057 41.8534 50.1435C42.2066 49.886 42.5346 49.4446 42.8626 49.187C43.1149 49.0031 43.342 48.5985 42.9888 49.1503C41.9796 50.6585 40.6424 51.2839 39.6333 52.6082C39.2296 53.16 39.28 54.4475 39.1791 53.8222C39.1287 53.4175 38.9016 52.4611 38.5736 52.5346Z" fill="#D1DB39"/>
<path fill-rule="evenodd" clip-rule="evenodd" d="M40.2379 54.4479C40.5406 53.5651 41.0957 52.9765 41.4237 52.535C42.0544 51.5786 42.6851 50.6221 43.2654 49.6289C43.9214 48.4885 42.7608 50.6957 42.6347 50.9532C42.1049 52.02 41.7769 52.535 41.3228 53.6754C41.2218 53.8961 40.8686 55.0365 40.7929 55.1837C40.5406 54.9997 40.4902 54.4479 40.2379 54.4479Z" fill="#D1DB39"/>
<path fill-rule="evenodd" clip-rule="evenodd" d="M41.5988 54.5582C41.9267 53.6753 42.4313 53.0499 42.7341 52.5717C42.8602 52.351 42.9611 52.0935 43.0873 51.836C43.2134 51.6153 43.3143 51.3945 43.1882 51.836C42.9359 52.5717 42.7341 53.3442 42.4818 54.08L42.0024 55.4411C41.952 55.5514 41.9015 54.595 41.5988 54.5582Z" fill="#D1DB39"/>
<path fill-rule="evenodd" clip-rule="evenodd" d="M44.7582 56.5081C44.8339 56.0299 45.0105 55.5884 45.1114 55.1102L45.7169 51.6523L45.9187 50.5487L45.8431 51.2844L45.3637 56.0299C45.2123 56.9496 45.1619 55.9563 44.7582 56.5081Z" fill="#D1DB39"/>
<path fill-rule="evenodd" clip-rule="evenodd" d="M45.9878 56.1038C46.0887 55.7727 46.341 55.1841 46.3663 54.8162C46.442 54.0805 46.5933 53.4551 46.7699 52.7194C47.0475 51.6158 46.6438 54.2644 46.6438 54.7059C46.6438 55.1105 46.7447 55.6623 46.8204 56.067C46.9213 56.6188 46.8961 56.6556 46.5176 56.2877C46.3915 56.1405 45.9121 56.1405 45.9878 56.1038Z" fill="#D1DB39"/>
<path fill-rule="evenodd" clip-rule="evenodd" d="M43.6224 56.4715C43.7233 55.6254 44.2783 54.9264 44.2783 54.0436C44.2783 53.4918 44.6315 52.9767 44.8081 52.5721C44.9847 52.1674 44.7829 53.0503 44.7577 53.1239C44.5558 54.0436 44.4801 55.3311 44.4297 56.3243C44.4045 56.6186 44.5054 56.8761 44.1017 56.5451C43.9756 56.4347 43.5971 56.4715 43.6224 56.4715Z" fill="#D1DB39"/>
<path fill-rule="evenodd" clip-rule="evenodd" d="M60.2392 52.1302C59.1291 51.2106 58.1199 50.6588 59.3057 51.4313C59.6337 51.652 59.4571 54.3742 59.0282 54.3375C58.5236 54.3007 57.9433 53.7856 57.8929 53.3074C57.5649 50.8795 57.7162 54.0064 57.5144 55.1468C57.4135 55.7721 57.6153 56.1032 57.5396 56.1768C57.3378 56.3975 56.1773 54.1167 56.2025 53.4914C56.2529 52.1302 56.4296 52.8292 56.6062 54.5214C56.6566 55.0732 56.8332 55.9561 56.6566 56.14C56.5557 56.2504 55.2185 55.2571 55.0167 54.6317C54.4869 53.0131 54.7644 54.0799 55.4456 55.6618C55.8493 56.5814 56.0259 57.2804 55.8493 57.3172C55.5465 57.3907 54.1841 56.2871 54.8401 55.8089C55.0167 55.6986 52.7965 59.0829 52.7965 58.6415C52.7965 58.0161 52.9227 57.1332 53.1497 55.9193C52.7965 55.8457 52.3424 58.1633 52.2919 57.869C51.6612 55.2203 51.4594 58.6415 51.2323 58.0529C50.3241 55.6986 48.9869 52.4981 48.1543 50.2541C47.9525 49.7391 47.5993 48.7827 47.8011 48.1941C47.9525 47.7526 48.003 47.3112 48.2048 46.7962C48.3309 46.5019 48.886 45.2879 48.8608 45.3247C51.6864 43.4854 52.6199 44.6258 54.3607 46.4651C55.8493 48.0469 57.1612 48.5619 59.0534 49.2977C60.1383 49.7759 61.2736 50.5484 60.2392 52.1302Z" fill="#699B42"/>
<path fill-rule="evenodd" clip-rule="evenodd" d="M60.2408 52.1303C60.8463 50.2174 59.6101 50.3645 59.6353 51.5049C59.6605 51.9831 59.8876 53.7121 59.3073 54.1535C58.9793 54.411 58.828 54.3742 58.7523 53.896C58.4243 51.4681 58.0206 54.0799 57.8188 55.2203C57.4151 57.5011 57.3899 55.4043 57.4151 54.5214C57.4656 53.1603 56.7339 52.9028 56.8853 54.5582C56.961 55.4778 56.7591 57.0229 56.2293 55.4043C55.6995 53.7857 55.0436 54.1167 55.7247 55.6986C56.633 57.8322 55.3211 57.7586 55.1192 55.8457C55.094 55.6618 51.9404 60.3337 52.9243 57.9425C53.2018 57.2804 54.3624 56.3239 53.7316 56.1768C53.3784 56.1032 51.7385 59.0829 52.3692 57.354C53.4541 54.4478 51.2087 58.7151 51.1835 58.0161C51.0573 55.5514 49.2913 52.5349 48.4587 50.2909C48.2569 49.7759 47.9037 48.8195 48.1055 48.2309C48.2569 47.7894 48.3073 47.348 48.5092 46.833C48.6353 46.5387 49.1904 45.3247 49.1651 45.3615C51.9908 43.5222 52.9243 44.6626 54.6651 46.5019C56.1536 48.0837 57.4656 48.5987 59.3578 49.3345C60.4931 49.8495 61.2752 50.5484 60.2408 52.1303Z" fill="#99CC33"/>
<path fill-rule="evenodd" clip-rule="evenodd" d="M60.0377 50.3276C58.8015 49.2608 57.7166 49.3344 56.7074 48.9665C56.329 48.8194 56.0262 48.4883 55.673 48.3412C55.4207 48.2308 55.1684 47.8997 55.5469 48.3412C56.5813 49.5183 57.9437 49.7391 58.9528 50.7691C59.3817 51.1737 59.3313 52.4981 59.4322 51.7991C59.5079 51.3945 59.7097 50.4012 60.0377 50.3276Z" fill="#D1DB39"/>
<path fill-rule="evenodd" clip-rule="evenodd" d="M58.4021 52.7556C58.0993 51.9831 57.519 51.5784 57.191 51.2106C56.5351 50.4748 55.8791 49.7023 55.2988 48.893C54.6176 47.9733 55.8287 49.7759 55.9548 49.9966C56.5098 50.8795 56.8378 51.3209 57.3172 52.2774C57.4181 52.4613 57.7965 53.4913 57.8722 53.6017C58.1245 53.4178 58.1498 52.866 58.4021 52.7556Z" fill="#D1DB39"/>
<path fill-rule="evenodd" clip-rule="evenodd" d="M57.058 53.3074C56.7048 52.5348 56.2002 52.0934 55.8722 51.6887C55.7461 51.5048 55.6452 51.2841 55.519 51.0634C55.3929 50.8794 55.2667 50.6955 55.4181 51.0634C55.6704 51.7255 55.8975 52.4245 56.175 53.0499L56.6543 54.2638C56.73 54.411 56.7552 53.4177 57.058 53.3074Z" fill="#D1DB39"/>
<path fill-rule="evenodd" clip-rule="evenodd" d="M53.9404 56.2136C53.8395 55.7722 53.6629 55.4043 53.5619 54.9261L52.906 51.652L52.6789 50.622L52.7798 51.321L53.3601 55.8825C53.4863 56.839 53.5115 55.8089 53.9404 56.2136Z" fill="#D1DB39"/>
<path fill-rule="evenodd" clip-rule="evenodd" d="M52.6725 56.1768C52.5716 55.8825 52.3193 55.3675 52.2688 55.0364C52.1679 54.3007 52.0165 53.7856 51.8147 53.0867C51.5119 52.0935 51.9661 54.595 51.9913 55.0364C51.9913 55.441 51.9156 56.0296 51.8399 56.4343C51.7642 57.0229 51.7895 57.0229 52.1427 56.5814C52.294 56.3607 52.7734 56.2136 52.6725 56.1768Z" fill="#D1DB39"/>
<path fill-rule="evenodd" clip-rule="evenodd" d="M55.0761 55.8089C54.9752 54.9628 54.3949 54.4478 54.3949 53.6017C54.3949 53.0499 54.0165 52.6821 53.8399 52.3142C53.6633 51.9463 53.8904 52.7556 53.9156 52.866C54.1426 53.7489 54.2436 54.9628 54.294 55.9193C54.3193 56.2136 54.2183 56.5079 54.622 56.0296C54.7229 55.9193 55.1014 55.8457 55.0761 55.8089Z" fill="#D1DB39"/>
<path fill-rule="evenodd" clip-rule="evenodd" d="M10.5888 27.6302C10.7906 27.7773 10.942 27.9981 10.942 28.3291C10.942 29.0649 11.1943 29.3592 11.4971 29.6167C11.7998 29.396 12.0773 29.3224 12.3549 29.1384C12.5567 28.9913 13.036 28.6234 13.2379 28.5866C13.8686 28.4763 13.4902 29.4327 13.8182 29.5431C14.1966 29.3592 14.676 28.8442 14.9535 28.8074C15.2562 28.7338 15.3571 28.1084 15.3571 27.5934C15.3571 26.5266 12.153 26.4162 11.4971 26.4162C10.9925 26.3794 10.5636 26.9312 10.5888 27.6302Z" fill="#699B42"/>
<path fill-rule="evenodd" clip-rule="evenodd" d="M20.3824 35.4289C20.7104 35.5761 20.4581 36.4957 20.6851 36.6797C20.887 36.8636 21.5681 36.1646 21.7448 36.0543C21.8709 35.9807 21.8709 36.6797 21.8709 36.8636C21.8709 37.5993 22.7792 35.5025 22.8801 36.6797C22.9305 37.4154 23.7883 37.0475 24.192 36.974C25.1002 36.7532 25.958 35.7232 25.958 34.2885C25.958 32.5963 22.2241 34.1782 21.5934 34.4725C21.114 34.6564 20.7608 35.3921 20.3824 35.4289Z" fill="#699B42"/>
<path fill-rule="evenodd" clip-rule="evenodd" d="M23.4284 39.9538C23.605 40.3584 23.7311 40.5791 23.7311 41.2045C23.7311 41.3517 23.7059 41.6459 23.7564 41.7563C23.7816 41.8667 23.9582 42.0874 23.933 42.1977C24.0087 42.161 24.0591 42.161 24.1096 42.0506C24.1348 41.977 24.261 41.8667 24.3366 41.7931C24.488 41.6459 24.8665 41.0941 25.0178 41.1677C24.9926 41.3884 24.9674 41.7563 24.9169 41.9035C24.816 42.1242 24.7655 42.3817 24.7151 42.6392C24.6394 42.9703 24.8665 43.1542 24.9421 43.3013C25.0683 43.0438 25.3206 42.676 25.5224 42.5288C25.5981 42.4553 25.6738 42.3449 25.7243 42.2713C25.7999 42.1977 25.8504 42.161 25.8252 42.0506C25.8252 42.161 26.027 42.3817 26.027 42.676C26.027 42.9703 25.9766 43.191 25.9766 43.5956C25.9766 44.0739 26.5064 43.6324 26.6073 43.5956C27.1371 43.4485 26.9605 44.221 27.1623 44.221C27.4651 44.221 27.6417 43.3013 27.8183 43.191C28.0201 43.5221 27.6417 44.4785 27.9949 44.4785C28.3481 44.4785 28.4238 43.6324 28.6256 43.5956C29.0545 43.5221 28.3229 45.7293 29.0293 45.0303C29.2564 44.8096 29.6348 43.9267 29.8366 43.9635C30.0637 44.0003 29.9376 44.9935 30.2655 44.9935C30.4169 44.9935 31.199 44.2578 31.4261 44.1107C31.7793 43.8899 32.1325 43.6324 32.4605 43.2646C32.9146 42.7495 32.8642 42.2345 33.1164 41.6827C33.0912 41.6827 32.8642 40.9838 32.7885 40.8366C31.9307 39.2916 24.0087 37.4155 23.4284 39.9538Z" fill="#699B42"/>
<path fill-rule="evenodd" clip-rule="evenodd" d="M37.3116 51.3575C37.69 53.0865 38.2955 51.6518 38.9515 52.0565C39.4561 52.3876 39.557 53.0129 39.9606 53.3808C40.6418 54.0062 42.1051 51.7622 41.6762 50.4747C41.323 49.3711 38.7496 49.8861 38.0684 50.3275C37.8162 50.5114 37.362 51.4311 37.3116 51.3575Z" fill="#699B42"/>
<path fill-rule="evenodd" clip-rule="evenodd" d="M9.13058 19.5376C9.50902 18.9858 10.2154 15.8222 12.587 15.859C17.2544 15.9325 18.6168 19.6112 18.8943 22.4806C19.1214 24.9821 16.5732 27.8882 14.0755 28.2929C11.2751 28.7343 7.31407 26.9685 6.53196 24.0256C5.72462 21.0459 8.27278 20.7516 9.13058 19.5376Z" fill="#C40202"/>
<path fill-rule="evenodd" clip-rule="evenodd" d="M9.1312 18.618C9.50964 18.0662 10.2161 14.9025 12.5876 14.9393C17.255 15.0129 18.6174 18.6915 18.8949 21.5609C19.122 24.0624 16.5738 26.9685 14.0761 27.3732C11.2757 27.8146 7.31469 26.0489 6.53258 23.1427C5.72524 20.163 8.2734 19.8687 9.1312 18.618Z" fill="url(#paint0_linear_4102_3992)"/>
<path fill-rule="evenodd" clip-rule="evenodd" d="M9.48563 18.875C9.81361 18.3967 10.4948 15.4906 12.6393 15.5274C16.903 15.601 18.1393 18.9485 18.3916 21.5604C18.5934 23.8412 16.2723 26.4898 13.9764 26.8577C11.4283 27.2623 7.79526 25.6437 7.08884 22.9951C6.38242 20.2729 8.70352 20.0154 9.48563 18.875Z" fill="#F07464"/>
<path fill-rule="evenodd" clip-rule="evenodd" d="M11.6195 19.1695C11.9223 18.5809 12.3764 17.9556 13.0828 17.9188C15.4544 17.7716 16.0347 19.7213 16.0599 21.3032C16.0851 22.6643 14.6723 24.3565 13.3856 24.6508C11.9475 25.0186 9.75258 24.43 9.47505 22.8482C9.32368 22.0021 9.82826 21.3032 10.2067 20.9353C9.72735 20.3467 9.12184 19.7213 8.46588 19.2431C8.71817 19.0592 8.97047 18.8385 9.12184 18.5809C9.22276 18.4338 9.32368 18.1395 9.50028 17.7716C10.2319 18.3234 10.8374 18.8017 11.6195 19.1695Z" fill="#FFB596"/>
<path fill-rule="evenodd" clip-rule="evenodd" d="M11.8537 18.8749C11.1977 16.4102 12.8376 15.2698 15.411 17.4402C17.2023 18.9485 17.3032 20.3832 16.8995 22.3329C16.6473 23.5468 15.083 22.3329 15.4362 21.45C16.4454 18.8381 12.9385 16.4102 12.989 19.2796C12.989 19.7946 12.0807 19.6842 11.8537 18.8749Z" fill="#E52614"/>
<path fill-rule="evenodd" clip-rule="evenodd" d="M9.93733 21.4503C7.46486 21.9285 7.1621 23.915 10.2401 25.3129C12.3593 26.2693 13.6965 25.7543 15.2355 24.5035C16.1942 23.731 14.4534 22.8849 13.7974 23.5471C11.9052 25.6071 8.19651 23.5103 10.7699 22.2596C11.2493 22.0756 10.7447 21.2663 9.93733 21.4503Z" fill="#E52614"/>
<path fill-rule="evenodd" clip-rule="evenodd" d="M24.361 27.483C23.9825 26.9312 23.2761 23.7675 20.9045 23.8043C16.2371 23.8779 14.8747 27.5565 14.5972 30.4259C14.3701 32.9274 16.9183 35.8336 19.416 36.2382C22.2165 36.6797 26.1775 34.9139 26.9596 32.0077C27.7921 29.028 25.2188 28.7337 24.361 27.483Z" fill="#C40202"/>
<path fill-rule="evenodd" clip-rule="evenodd" d="M24.3629 26.6C23.9845 26.0482 23.278 22.8846 20.9065 22.9214C16.2391 22.9949 14.8767 26.6736 14.5992 29.543C14.3721 32.0445 16.9203 34.9506 19.418 35.3553C22.2184 35.7967 26.1794 34.0309 26.9615 31.1248C27.7941 28.1083 25.2207 27.814 24.3629 26.6Z" fill="url(#paint1_linear_4102_3992)"/>
<path fill-rule="evenodd" clip-rule="evenodd" d="M24.0426 26.8213C23.7146 26.3431 23.0334 23.4369 20.8889 23.4737C16.6251 23.5473 15.3637 26.8949 15.1366 29.5068C14.9348 31.7875 17.2559 34.4362 19.5517 34.804C22.0999 35.2087 25.7329 33.5901 26.4393 30.9414C27.1458 28.2192 24.8247 27.9617 24.0426 26.8213Z" fill="#F07464"/>
<path fill-rule="evenodd" clip-rule="evenodd" d="M21.8948 27.1516C21.5921 26.563 21.1379 25.9376 20.4315 25.9008C18.06 25.7537 17.4797 27.7034 17.4544 29.2852C17.4292 30.6463 18.8421 32.3385 20.1288 32.6328C21.5668 33.0006 23.7618 32.4121 24.0393 30.8302C24.1907 29.9841 23.6861 29.2852 23.3076 28.9173C23.787 28.3287 24.3925 27.7034 25.0485 27.2251C24.7962 27.0412 24.5439 26.8205 24.3925 26.563C24.2916 26.4158 24.1907 26.1215 24.0141 25.7537C23.2824 26.2687 22.6517 26.7837 21.8948 27.1516Z" fill="#FFB596"/>
<path fill-rule="evenodd" clip-rule="evenodd" d="M21.6655 26.858C22.3214 24.3933 20.6815 23.2529 18.1081 25.4233C16.3168 26.9316 16.2159 28.3662 16.6196 30.3159C16.8719 31.5299 18.4361 30.3159 18.0829 29.4331C17.0737 26.8212 20.5806 24.3933 20.5301 27.2626C20.5301 27.7409 21.4384 27.6673 21.6655 26.858Z" fill="#E52614"/>
<path fill-rule="evenodd" clip-rule="evenodd" d="M23.5853 29.3961C26.0578 29.8743 26.3605 31.8608 23.2825 33.2587C21.1633 34.2519 19.8514 33.7001 18.2871 32.4494C17.3284 31.6769 19.0692 30.8308 19.7252 31.4929C21.6174 33.553 25.3261 31.4561 22.7275 30.2422C22.2734 30.0215 22.778 29.2489 23.5853 29.3961Z" fill="#E52614"/>
<path fill-rule="evenodd" clip-rule="evenodd" d="M25.9044 35.0243C26.2828 34.4725 26.9892 31.3089 29.3608 31.3457C34.0282 31.4192 35.3906 35.0979 35.6681 37.9673C35.8952 40.4688 33.347 43.3749 30.8493 43.7796C28.0489 44.221 24.0879 42.4552 23.3057 39.5491C22.4984 36.5694 25.0466 36.2751 25.9044 35.0243Z" fill="#C40202"/>
<path fill-rule="evenodd" clip-rule="evenodd" d="M25.9055 34.1414C26.2839 33.5896 26.9903 30.4259 29.3619 30.4627C34.0293 30.5363 35.3917 34.215 35.6692 37.0843C35.8963 39.5858 33.3481 42.492 30.8504 42.8966C28.05 43.3381 24.089 41.5723 23.3068 38.6662C22.4995 35.6496 25.0477 35.3554 25.9055 34.1414Z" fill="url(#paint2_linear_4102_3992)"/>
<path fill-rule="evenodd" clip-rule="evenodd" d="M26.252 34.3626C26.58 33.8843 27.2612 30.9782 29.4057 31.015C33.6695 31.0885 34.9057 34.4361 35.158 37.048C35.3598 39.3288 33.0387 41.9774 30.7429 42.3453C28.1947 42.7499 24.5617 41.1313 23.8553 38.4827C23.1236 35.7604 25.4699 35.5029 26.252 34.3626Z" fill="#F07464"/>
<path fill-rule="evenodd" clip-rule="evenodd" d="M28.4083 34.6564C28.7111 34.0678 29.1652 33.4425 29.8716 33.4057C32.2432 33.2585 32.8235 35.2082 32.8487 36.7901C32.8739 38.1512 31.4611 39.8434 30.1744 40.1376C28.7363 40.5055 26.5414 39.9169 26.2638 38.3351C26.1125 37.489 26.6171 36.7901 26.9955 36.4222C26.5161 35.8336 25.9106 35.2082 25.2547 34.73C25.507 34.5461 25.7593 34.3254 25.9106 34.0679C26.0115 33.9207 26.1125 33.6264 26.2891 33.2585C26.9955 33.8103 27.6262 34.3254 28.4083 34.6564Z" fill="#FFB596"/>
<path fill-rule="evenodd" clip-rule="evenodd" d="M28.6077 34.3993C27.9517 31.9346 29.5916 30.7942 32.165 32.9646C33.9563 34.4729 34.0572 35.9075 33.6535 37.8572C33.4012 39.0712 31.837 37.8572 32.1902 36.9743C33.1994 34.3625 29.6925 31.9346 29.743 34.8039C29.743 35.2822 28.8347 35.1718 28.6077 34.3993Z" fill="#E52614"/>
<path fill-rule="evenodd" clip-rule="evenodd" d="M26.6853 36.9373C24.2129 37.4155 23.9101 39.402 26.9881 40.7999C29.1073 41.7564 30.4445 41.2414 31.9835 39.9906C32.9422 39.2181 31.2014 38.372 30.5454 39.0342C28.6532 41.0942 24.9445 38.9974 27.5431 37.7834C27.9973 37.5627 27.4927 36.7902 26.6853 36.9373Z" fill="#E52614"/>
<path fill-rule="evenodd" clip-rule="evenodd" d="M41.5015 43.4482C41.1231 42.8964 40.4167 39.7328 38.0451 39.7696C33.3777 39.8431 32.0153 43.5218 31.7378 46.3912C31.5107 48.8927 34.0589 51.7988 36.5566 52.2035C39.357 52.6449 43.318 50.8792 44.1001 47.973C44.9075 44.9933 42.3593 44.6622 41.5015 43.4482Z" fill="#C40202"/>
<path fill-rule="evenodd" clip-rule="evenodd" d="M41.507 42.5287C41.1285 41.9769 40.4221 38.8132 38.0506 38.85C33.3831 38.9236 32.0208 42.6023 31.7432 45.4716C31.5162 47.9731 34.0643 50.8793 36.562 51.2839C39.3625 51.7254 43.3235 49.9596 44.1056 47.0535C44.9129 44.0737 42.3648 43.7794 41.507 42.5287Z" fill="url(#paint3_linear_4102_3992)"/>
<path fill-rule="evenodd" clip-rule="evenodd" d="M41.1494 42.7864C40.8214 42.3082 40.1402 39.402 37.9957 39.4388C33.7319 39.5124 32.4705 42.86 32.2434 45.4718C32.0416 47.7526 34.3627 50.4012 36.6586 50.7691C39.2067 51.1738 42.8397 49.5551 43.5462 46.9065C44.2778 44.1843 41.9315 43.9268 41.1494 42.7864Z" fill="#F07464"/>
<path fill-rule="evenodd" clip-rule="evenodd" d="M39.0046 43.0805C38.7018 42.4919 38.2477 41.8666 37.5413 41.8298C35.1697 41.6826 34.5895 43.6323 34.5642 45.2141C34.539 46.5753 35.9518 48.2674 37.2385 48.5617C38.6766 48.9296 40.8716 48.341 41.1491 46.7592C41.3005 45.9131 40.7959 45.2141 40.4174 44.8463C40.8968 44.2577 41.5023 43.6323 42.1583 43.1541C41.906 42.9702 41.6537 42.7494 41.5023 42.4919C41.4014 42.3448 41.3005 42.0505 41.1239 41.6826C40.4174 42.2344 39.7867 42.7126 39.0046 43.0805Z" fill="#FFB596"/>
<path fill-rule="evenodd" clip-rule="evenodd" d="M38.7762 42.7865C39.4322 40.3217 37.7923 39.1814 35.2189 41.3518C33.4276 42.86 33.3267 44.2947 33.7304 46.2444C33.9827 47.4584 35.5469 46.2444 35.1937 45.3615C34.1845 42.7497 37.6914 40.3217 37.6409 43.1911C37.6661 43.7061 38.5744 43.5958 38.7762 42.7865Z" fill="#E52614"/>
<path fill-rule="evenodd" clip-rule="evenodd" d="M40.715 45.3613C43.1874 45.8395 43.4902 47.826 40.4122 49.2239C38.293 50.1803 36.9558 49.6653 35.4168 48.4145C34.4581 47.642 36.1989 46.7959 36.8549 47.4581C38.7471 49.5181 42.4558 47.4213 39.8572 46.2073C39.4031 45.9866 39.9076 45.1773 40.715 45.3613Z" fill="#E52614"/>
<path fill-rule="evenodd" clip-rule="evenodd" d="M43.3135 48.2306C43.692 47.6788 44.3984 44.5152 46.7699 44.552C51.4374 44.6255 52.7997 48.3042 53.0773 51.1736C53.3043 53.6751 50.7562 56.5812 48.2585 56.9859C45.458 57.4273 41.497 55.6615 40.7149 52.7554C39.9076 49.7757 42.4557 49.4814 43.3135 48.2306Z" fill="#C40202"/>
<path fill-rule="evenodd" clip-rule="evenodd" d="M43.3134 47.3479C43.6918 46.7961 44.3982 43.6324 46.7698 43.6692C51.4372 43.7428 52.7996 47.4214 53.0771 50.2908C53.3042 52.7923 50.756 55.6985 48.2583 56.1031C45.4579 56.5445 41.4969 54.7788 40.7147 51.8726C39.9074 48.8561 42.4556 48.5618 43.3134 47.3479Z" fill="url(#paint4_linear_4102_3992)"/>
<path fill-rule="evenodd" clip-rule="evenodd" d="M43.6639 47.5688C43.9919 47.0905 44.673 44.1844 46.8175 44.2212C51.0813 44.2947 52.3428 47.6423 52.5698 50.2542C52.7717 52.535 50.4506 55.1836 48.1547 55.5515C45.6065 55.9561 41.9735 54.3375 41.2671 51.6889C40.5607 48.9667 42.8818 48.7091 43.6639 47.5688Z" fill="#F07464"/>
<path fill-rule="evenodd" clip-rule="evenodd" d="M45.8147 47.8629C46.1175 47.2743 46.5716 46.649 47.278 46.6122C49.6496 46.465 50.2298 48.4147 50.2551 49.9966C50.2803 51.3577 48.8675 53.0498 47.5808 53.3441C46.1427 53.712 43.9477 53.1234 43.6702 51.5416C43.5188 50.6955 44.0234 49.9966 44.4019 49.6287C43.9225 49.0401 43.317 48.4147 42.661 47.9365C42.9133 47.7526 43.1656 47.5318 43.317 47.2743C43.4179 47.1272 43.5188 46.8329 43.6954 46.465C44.4271 47.0168 45.0326 47.4951 45.8147 47.8629Z" fill="#FFB596"/>
<path fill-rule="evenodd" clip-rule="evenodd" d="M46.0359 47.6056C45.3799 45.1409 47.0199 44.0005 49.5932 46.1709C51.3845 47.6792 51.4854 49.1139 51.0818 51.0636C50.8295 52.2775 49.2653 51.0636 49.6185 50.1807C50.6276 47.5688 47.1208 45.1409 47.1712 48.0103C47.1712 48.4885 46.2377 48.3781 46.0359 47.6056Z" fill="#E52614"/>
<path fill-rule="evenodd" clip-rule="evenodd" d="M44.1176 50.1437C41.6451 50.622 41.3423 52.6084 44.4203 54.0063C46.5396 54.9628 47.8767 54.4478 49.4157 53.197C50.3744 52.4245 48.6336 51.5784 47.9777 52.2406C46.0855 54.3006 42.3767 52.2038 44.9754 50.9898C45.4043 50.7691 44.9249 49.9966 44.1176 50.1437Z" fill="#E52614"/>
<path fill-rule="evenodd" clip-rule="evenodd" d="M11.9996 23.6208C22.1165 34.289 33.5202 44.7732 46.3114 53.3445C56.2013 59.9661 56.933 50.3648 50.4743 45.4354C38.3894 36.1651 26.4055 27.2627 15.8344 15.9692C8.99729 8.61186 4.65785 15.8588 11.9996 23.6208Z" fill="#94230F"/>
<path fill-rule="evenodd" clip-rule="evenodd" d="M11.5018 20.0889C21.4169 31.787 33.8045 43.8899 46.9489 51.284C52.0705 54.1901 53.7861 50.9161 49.9512 48.2675C37.5889 40.9837 20.9123 27.6301 13.4192 16.7045C9.07976 10.414 7.1371 15.5641 11.5018 20.0889Z" fill="#C95838"/>
<path fill-rule="evenodd" clip-rule="evenodd" d="M13.9257 19.7728C24.0426 30.441 32.9486 41.0723 46.093 48.4664C51.2146 51.3726 49.0449 48.0986 47.3545 46.9214C33.983 38.8283 22.7307 29.4845 13.3959 17.5288C9.81329 12.9305 9.53577 15.2848 13.9257 19.7728Z" fill="#DB8061"/>
<path d="M48.8864 49.7024C48.3818 49.7024 47.4231 49.2977 46.0607 48.5252C34.7075 42.1243 26.5584 33.4059 17.9552 24.1356C16.6433 22.7009 15.2557 21.2663 13.8933 19.7948C11.6984 17.5508 10.5126 15.6379 10.6387 15.1229C10.664 15.0493 10.6892 14.9757 10.8153 14.9757C11.1181 14.9757 11.9759 15.6379 13.4392 17.4772C18.0309 23.3631 23.0768 28.6236 28.8795 33.5898C34.3795 38.2985 40.4093 42.6393 47.3474 46.8698C48.2052 47.4952 49.4162 48.8195 49.3153 49.4081C49.2648 49.592 49.1387 49.7024 48.8864 49.7024ZM10.8153 15.0493C10.7396 15.0493 10.7144 15.1229 10.7144 15.1229C10.6387 15.454 11.3704 17.0358 13.9438 19.7212C15.3061 21.1927 16.6685 22.6274 18.0057 24.0621C26.6089 33.2955 34.7327 42.014 46.0859 48.4148C47.4483 49.1874 48.407 49.592 48.8864 49.592C49.0377 49.592 49.1891 49.5552 49.2143 49.4081C49.29 48.9666 48.2809 47.6791 47.2969 46.9802C40.3589 42.7497 34.3038 38.4089 28.8291 33.7002C23.0263 28.6972 17.9552 23.4367 13.3635 17.5508C11.9254 15.7115 11.0929 15.0493 10.8153 15.0493Z" fill="#B96B0B"/>
<path d="M10.56 21.1191C10.4339 21.2294 10.2825 21.303 10.1311 21.3398C9.677 20.6776 9.32379 20.0155 9.02103 19.3901C9.09672 19.0222 9.2481 18.7279 9.47516 18.5072C10.5853 17.5508 12.6541 16.0057 14.5715 15.5643C14.8238 15.4907 15.1013 15.4539 15.3536 15.4539C15.505 15.6011 15.6563 15.7482 15.8077 15.9321C16.7412 16.9254 17.6999 17.9186 18.6586 18.8751C18.6082 18.9854 18.5577 19.0958 18.482 19.1694C18.3054 19.4269 18.0027 19.6108 17.5485 19.8683C16.716 20.3465 15.0508 21.2294 14.7229 21.9652C14.7229 22.0019 14.6976 22.0019 14.6976 22.0387C16.1357 21.1559 17.8765 19.9787 19.466 20.0155C19.5921 20.0155 19.693 20.0155 19.8192 20.0155C20.677 20.8616 21.56 21.7077 22.443 22.5537V22.6273C22.4178 24.6138 20.8031 25.3863 20.6265 27.851C20.904 27.7407 21.232 27.5935 21.6105 27.4096C22.9728 26.3796 24.6127 25.791 26.3536 26.1221C27.1861 26.8578 28.0187 27.5935 28.8765 28.3293C28.8513 28.4764 28.826 28.6235 28.8008 28.8075C28.7251 29.065 28.5737 29.4329 28.3215 29.9479C27.6907 31.2722 25.9247 34.583 26.8582 33.8105C28.1701 32.7804 30.0875 31.309 32.4338 31.3458C33.0646 31.8608 33.7205 32.4126 34.3513 32.9276C34.3513 33.0012 34.3513 33.1115 34.3513 33.1851C34.326 33.3322 34.3008 33.4794 34.2756 33.5897C33.7205 35.5762 33.7205 38.0409 33.9728 39.8435C34.0485 40.3585 34.1494 40.7999 34.2503 41.131C34.5279 40.8735 34.8054 40.5424 35.1334 40.2114C36.5462 38.7031 38.2366 36.9373 39.498 37.1948C40.6334 37.4524 41.2893 38.7399 40.9866 41.7932C40.6081 45.5086 40.6334 46.7226 40.8352 46.7594C41.1632 46.833 42.021 46.0972 42.9292 45.2879C43.9132 44.4418 44.9223 43.5589 45.9567 43.1911C46.4613 43.0071 46.9155 42.9336 47.2939 42.9704L49.06 44.3315C49.287 44.8097 49.4384 45.3983 49.5393 46.0604C49.7159 47.0905 49.7159 48.3044 49.7159 49.5552C49.7159 50.8795 49.7159 52.3142 49.943 53.2706C50.0944 53.9696 49.9177 54.7053 49.4888 55.0732C49.0347 54.8892 48.5301 54.6685 48.0003 54.3742C48.0003 54.3374 47.9751 54.3006 47.9751 54.2639C47.6219 52.7924 47.6219 51.137 47.6219 49.5552C47.6219 48.4884 47.6219 47.4583 47.4957 46.7226C47.42 46.1708 47.1425 45.8765 46.4109 46.134C45.7045 46.3915 44.8214 47.164 43.9636 47.863C42.9797 48.7091 42.0462 49.5184 41.1632 49.7023C40.4568 49.1873 39.7756 48.6723 39.0944 48.1573C38.6655 46.8697 38.5646 44.7361 38.9178 41.2782C38.9935 40.4321 39.2962 40.1378 39.1953 40.1378C38.7664 40.0274 37.4292 41.4253 36.3191 42.6025C35.7893 43.1543 35.2847 43.7061 34.8811 44.0372C34.6792 44.2211 34.4522 44.3315 34.2251 44.3682C33.6953 43.9268 33.1403 43.4854 32.6104 43.0439C32.56 42.9704 32.5348 42.86 32.4843 42.7864C32.232 42.161 32.0554 41.3517 31.904 40.4321C31.6517 38.7031 31.6013 36.4591 31.904 34.3623C30.2389 34.5094 28.8008 35.6498 27.7916 36.4223C27.1357 36.9373 26.5806 37.342 26.1013 37.4524C25.5967 37.0109 25.0921 36.5327 24.6127 36.0912C24.0577 34.1783 25.2183 31.1986 26.1013 29.2121C24.7137 29.065 23.5279 29.2857 22.216 30.2789C21.4086 30.6468 20.7527 30.9779 20.1472 30.9779C19.0623 30.9779 18.4568 30.2789 18.4568 28.4028C18.4316 26.1221 19.1884 25.0552 19.7939 23.7677C20.0715 23.1791 20.3238 22.6273 20.349 22.5537C20.349 22.2595 16.7917 23.3263 16.3123 23.5838C15.2274 24.1724 14.294 25.0552 13.5371 25.2024C13.0325 24.6874 12.5279 24.1724 12.0486 23.6206C11.7963 21.5973 13.8651 19.0222 14.849 18.1761C13.2091 18.4336 11.3674 20.0523 10.56 21.1191Z" fill="#AC3019"/>
<path d="M9.85612 21.312C9.37677 21.7535 8.72081 21.496 8.44328 20.797C8.14053 20.0981 8.31714 19.1416 8.79649 18.737C9.90658 17.7805 11.9754 16.2355 13.8928 15.794C15.3561 15.4629 16.769 15.7572 17.8034 17.2655C18.3079 18.0012 18.2827 18.7002 17.8034 19.4359C17.6268 19.6934 17.324 19.8774 16.8699 20.1349C16.0373 20.6131 14.3722 21.496 14.0442 22.2317C14.0442 22.2685 14.019 22.2685 14.019 22.3053C15.457 21.4224 17.1979 20.2452 18.7873 20.282C21.0579 20.3556 21.7896 21.312 21.7644 22.8939C21.7391 24.8803 20.1245 25.6529 19.9478 28.1176C20.2254 28.0072 20.5534 27.8601 20.9318 27.6761C22.7735 26.2782 25.0694 25.7264 27.5166 27.0875C27.5419 27.0875 27.5671 27.1243 27.5923 27.1243C28.1978 27.4922 28.3744 28.1544 28.1221 29.074C28.0465 29.3315 27.8951 29.6994 27.6428 30.2144C27.0121 31.5387 25.246 34.8495 26.1795 34.077C27.668 32.9366 29.9639 31.1341 32.8148 31.7595C33.3698 31.8698 33.7735 32.6423 33.6978 33.4884C33.6726 33.6356 33.6474 33.7827 33.6221 33.8931C33.0671 35.8796 33.0671 38.3443 33.3194 40.1468C33.3951 40.6618 33.496 41.1033 33.5969 41.4343C33.8744 41.1768 34.1519 40.8458 34.4799 40.5147C35.8928 39.0064 37.5831 37.2407 38.8446 37.4982C39.9799 37.7557 40.6359 39.0432 40.3331 42.0965C39.9547 45.812 39.9799 47.0259 40.1818 47.0627C40.5097 47.1363 41.3675 46.4006 42.2758 45.5912C43.2597 44.7451 44.2689 43.8623 45.3033 43.4944C47.5992 42.6851 48.5074 44.0462 48.8859 46.327C49.0625 47.357 49.0625 48.571 49.0625 49.8217C49.0625 51.146 49.0625 52.5807 49.2895 53.5372C49.4661 54.3097 49.1886 55.1926 48.6588 55.4501C48.129 55.7076 47.5235 55.3029 47.3469 54.5304C46.9937 53.0589 46.9937 51.4035 46.9937 49.8217C46.9937 48.7549 46.9937 47.7249 46.8675 46.9891C46.7918 46.4373 46.5143 46.143 45.7827 46.4006C45.0762 46.6581 44.1932 47.4306 43.3354 48.1295C42.0992 49.1963 40.9386 50.1896 39.9042 49.9689C38.4409 49.6378 37.6841 47.5409 38.2896 41.5815C38.3652 40.7354 38.668 40.4411 38.5671 40.4411C38.1382 40.3307 36.801 41.7286 35.6909 42.9058C35.1611 43.4576 34.6565 44.0094 34.2529 44.3405C33.9249 44.6348 33.5969 44.7084 33.2689 44.6348C32.6886 44.5244 32.2345 43.9358 31.8813 43.053C31.629 42.4276 31.4524 41.6183 31.301 40.6986C31.0487 38.9696 30.9983 36.7257 31.301 34.6288C29.6359 34.776 28.1978 35.9163 27.1887 36.6889C26.0786 37.535 25.3217 38.1235 24.5648 37.351C22.9501 35.6588 24.4134 31.8698 25.4983 29.4787C24.1107 29.3315 22.9249 29.5523 21.613 30.5455C20.8056 30.9134 20.1497 31.2444 19.5442 31.2444C18.4593 31.2444 17.8538 30.5455 17.8538 28.6694C17.8286 26.3886 18.5855 25.3218 19.191 24.0342C19.4937 23.4457 19.746 22.8939 19.746 22.8203C19.746 22.526 16.1887 23.5928 15.7093 23.8503C14.1703 24.6964 12.9341 26.0575 12.1015 25.2482C10.0832 23.2617 13.0098 19.5095 14.2208 18.4427C12.5052 18.5898 10.6635 20.2084 9.85612 21.312Z" fill="#B96B0B"/>
<path d="M8.5442 19.0218C8.61989 18.9115 8.69558 18.8011 8.7965 18.6908C9.90659 17.7343 11.9754 16.1893 13.8928 15.7478C15.3561 15.4167 16.769 15.711 17.8034 17.2193C18.1061 17.6607 18.207 18.1022 18.1566 18.5436C18.1061 18.6172 18.0809 18.6908 18.0304 18.7643C17.8538 19.0218 17.5511 19.2058 17.0969 19.4633C16.7942 19.6104 12.8836 22.2591 14.0694 22.1855C14.0694 22.2223 14.0442 22.2223 14.0442 22.2591C15.4823 21.3762 17.2231 20.199 18.8125 20.2358C21.0832 20.3094 21.8148 21.2658 21.7896 22.8477C21.7896 23.142 21.7391 23.3995 21.6887 23.6202C21.3102 24.5031 20.8561 24.9077 20.3263 26.1952C20.1245 26.6735 19.9226 27.4092 19.9731 28.0714C19.9983 28.6232 20.5786 27.8139 20.957 27.6299C22.7988 26.232 25.0946 25.6802 27.5419 27.0413C27.5671 27.0413 27.5923 27.0781 27.6176 27.0781C28.1978 27.446 28.3744 28.0346 28.1726 28.8807C28.0969 29.0646 27.996 29.2485 27.8951 29.506C27.441 30.4993 26.3309 32.5961 26.1795 33.2951C25.902 33.9572 25.8263 34.3251 26.2047 34.0308C27.6932 32.8904 29.9891 31.0879 32.84 31.7133C33.3951 31.8236 33.7987 32.5961 33.7231 33.4422C33.6978 33.5894 33.6726 33.7365 33.6474 33.8469C33.0923 35.8334 33.0923 38.2981 33.3446 40.1006C33.4203 40.6156 33.5212 41.0571 33.6221 41.3882C33.8997 41.1306 34.1772 40.7996 34.5052 40.4685C35.918 38.9602 37.6084 37.1945 38.8698 37.452C40.0052 37.7095 40.6611 38.997 40.3584 42.0503C39.9799 45.7658 40.0052 46.9797 40.207 47.0165C40.535 47.0901 41.3928 46.3544 42.301 45.545C43.285 44.699 44.2941 43.8161 45.3285 43.4482C47.6244 42.6389 48.5327 44 48.9111 46.2808C49.0877 47.3108 49.0877 48.5248 49.0877 49.7755C49.0877 51.0998 49.0877 52.5345 49.3148 53.491C49.3905 53.7853 49.3905 54.0428 49.34 54.3371C49.2139 54.5578 49.0625 54.7049 48.8859 54.7785C48.3561 55.036 47.7506 54.6314 47.5739 53.8588C47.2207 52.3874 47.2207 50.732 47.2207 49.1501C47.2207 48.0833 47.2207 47.0533 47.0946 46.3176C47.0189 45.7658 46.7414 45.4715 46.0097 45.729C45.3033 45.9865 44.4203 46.759 43.5625 47.458C42.3263 48.5248 41.1657 49.518 40.1313 49.2973C38.668 48.9662 37.9111 46.8694 38.5166 40.9099C38.5923 40.0638 38.8951 39.7695 38.7941 39.7695C38.3652 39.6592 37.0281 41.0571 35.918 42.2342C35.3882 42.786 34.8836 43.3378 34.4799 43.6689C34.152 43.9632 33.824 44.0368 33.496 43.9632C32.9157 43.8529 32.4616 43.2643 32.1084 42.3814C31.8561 41.756 31.6795 40.9467 31.5281 40.027C31.0992 37.5991 31.9822 34.1044 31.5281 33.9572C29.863 34.1044 28.3997 34.9873 27.3905 35.7966C26.2804 36.6427 25.5488 37.4888 24.7919 36.7162C23.707 35.5759 24.0098 33.5158 24.6405 31.5661C24.9937 30.5729 25.3469 29.69 25.7001 28.8439C23.48 27.5564 18.0557 33.5158 18.0557 28.0346C18.0557 27.1517 18.1566 26.416 18.3332 25.8274C18.5855 25.1652 18.9135 24.6502 19.191 24.0248C19.2667 23.8409 19.9479 22.4798 19.9479 22.1855C19.9479 21.8912 18.4593 22.1119 15.7598 23.0684C14.2208 23.9145 13.1359 25.4227 12.3034 24.6502C11.5465 23.9145 11.4708 22.9212 11.7483 21.928C12.3538 20.4565 13.5396 19.0586 14.1956 18.47C14.9777 18.1022 14.8768 17.8815 14.4226 17.8447C12.7827 17.9918 10.941 19.6104 10.1336 20.714C9.65429 21.1555 8.99833 20.898 8.72081 20.199C8.51897 19.7944 8.46852 19.3897 8.5442 19.0218Z" fill="#FFCB05"/>
<path fill-rule="evenodd" clip-rule="evenodd" d="M9.20221 18.9122C9.05084 19.1329 9.12653 19.6111 9.40405 19.6111C9.68157 19.6111 9.60588 19.1697 10.1357 18.9858C10.6655 18.765 12.2802 17.5143 12.7343 17.22C13.1884 16.9257 14.2733 16.705 13.4407 16.705C12.6082 16.705 11.1953 17.735 10.6151 18.1029C10.06 18.4707 9.78249 18.4707 9.58065 18.6179C9.40405 18.765 9.20221 18.9122 9.20221 18.9122Z" fill="#F8E5A8"/>
<path fill-rule="evenodd" clip-rule="evenodd" d="M14.4468 18.9116C14.0936 19.4634 13.7151 20.1256 13.3115 20.567C12.8321 21.0452 11.8986 22.3328 12.1761 23.3628C12.4537 24.4296 13.4881 23.7306 13.9674 23.3628C14.5729 22.8846 14.0936 22.7374 13.6394 22.8478C12.5041 23.1788 13.4376 21.4499 13.6899 20.9349C13.8917 20.4934 14.1188 20.1256 14.3206 19.7209C14.3459 19.6473 14.6234 18.9484 14.4468 18.9116Z" fill="#F8E5A8"/>
<path fill-rule="evenodd" clip-rule="evenodd" d="M19.3942 24.6136C19.3437 25.239 18.8392 26.3426 18.6625 27.0048C18.4103 27.8876 18.4859 29.5798 19.3437 29.6166C19.6213 29.6166 19.924 29.727 20.1511 29.543C20.5548 29.2487 19.596 28.9912 19.4951 28.9912C18.9653 28.8809 19.1167 26.968 19.2428 26.453C19.3437 26.0483 19.5456 25.5701 19.5456 25.1286C19.5456 24.6136 19.4194 24.6872 19.3942 24.6136Z" fill="#F8E5A8"/>
<path fill-rule="evenodd" clip-rule="evenodd" d="M20.6582 28.5503C20.3807 29.2861 21.0367 28.8814 21.3142 28.5871C21.7179 28.1825 22.0711 27.9985 22.5 27.7042C22.8027 27.4835 22.727 27.2628 22.3991 27.2996C21.7431 27.3731 20.8853 27.9249 20.6582 28.5503Z" fill="#F8E5A8"/>
<path fill-rule="evenodd" clip-rule="evenodd" d="M25.376 30.7572C24.9219 31.7504 24.5434 33.4794 24.5434 34.6934C24.5434 35.7234 25.1237 36.0545 25.7545 35.613C25.9311 35.5027 27.0664 34.6198 26.5113 34.583C25.7545 34.5094 24.8462 35.2452 25.0228 33.369C25.0733 32.7437 25.3508 32.2287 25.4265 31.6033C25.4517 31.3826 25.5274 31.1986 25.5274 30.9411C25.5526 30.794 25.3508 30.6836 25.376 30.7572Z" fill="#F8E5A8"/>
<path fill-rule="evenodd" clip-rule="evenodd" d="M31.8335 37.3789C31.7326 38.0043 31.9849 41.168 32.4138 41.9037C33.1706 43.228 34.8106 41.5358 35.4665 40.7265C36.4252 39.5493 35.3404 40.0644 34.8862 40.5794C34.4069 41.1312 32.4138 42.4923 32.3381 40.5794C32.3381 40.1011 32.1362 37.2686 31.8335 37.3789Z" fill="#F8E5A8"/>
<path fill-rule="evenodd" clip-rule="evenodd" d="M39.3 46.1339C39.3 47.679 40.511 48.3411 41.3436 47.4215C41.5707 47.164 43.1349 45.8029 43.1601 45.5453C43.1854 45.2511 42.6808 45.5453 42.6051 45.5453C42.2519 45.7293 41.7977 46.3179 41.4193 46.5754C41.1166 46.7961 40.3849 47.3847 40.0317 47.0904C39.6785 46.8329 39.628 46.2075 39.3 46.1339Z" fill="#F8E5A8"/>
<path fill-rule="evenodd" clip-rule="evenodd" d="M17.4341 19.2795C17.7116 19.1323 17.9134 18.9852 18.0396 18.7644C18.09 18.6909 18.1405 18.6173 18.1657 18.5437C18.2162 18.1023 18.1153 17.6608 17.8125 17.2194C17.6864 17.0355 17.5602 16.8515 17.4089 16.7044V19.2795H17.4341ZM17.4341 20.8613V20.4198C17.8882 20.2727 18.3423 20.1991 18.7965 20.1991C21.0671 20.2727 21.7988 21.2292 21.7735 22.811C21.7735 23.1053 21.7231 23.3628 21.6726 23.5835C21.3194 24.3928 20.9157 24.7975 20.4364 25.8643C20.4364 25.8643 20.4364 24.7239 20.3859 24.5032C20.2345 23.9882 20.0832 23.6203 19.7047 23.4731C19.5786 23.4364 19.4777 23.4731 19.3515 23.5467C19.5786 23.0685 19.9066 22.3328 19.9066 22.112C19.9066 21.9281 19.2001 21.9649 17.9134 22.296C17.9134 22.1856 17.9134 22.112 17.9134 22.0752C17.9134 21.5602 17.8378 21.5602 17.6864 21.1924C17.6359 21.0452 17.535 20.9349 17.4341 20.8613ZM22.6818 26.6C22.7575 26.6 22.8332 26.6368 22.9088 26.6736C23.3125 26.8575 23.5648 27.5565 23.7162 28.0715C23.7919 28.329 23.8423 28.5497 23.8423 28.8072C24.5487 28.5865 25.1795 28.5129 25.6588 28.8072C25.3813 29.3958 25.1543 30.0212 24.902 30.6833C25.2299 30.1683 25.7345 30.058 26.1887 30.3523C26.3653 30.4626 26.5923 30.6833 26.7185 30.9041C26.7437 30.9408 26.8698 31.2351 26.8951 31.4559C27.2483 30.7201 27.6267 29.9844 27.8538 29.5062C27.9547 29.2487 28.0556 29.0647 28.1313 28.8808C28.3331 28.0347 28.1565 27.4093 27.5763 27.0782C27.551 27.0782 27.5258 27.0415 27.5006 27.0415C25.785 26.0482 24.1451 26.0482 22.6818 26.6ZM29.0396 32.1548C29.1153 32.1916 29.2162 32.2284 29.3423 32.3019C29.9983 32.6698 30.2001 33.4055 30.0992 34.2884C30.5533 34.1413 31.0075 34.0309 31.4868 33.9941C31.6382 34.0309 31.6382 34.4724 31.5877 35.1345C32.0419 34.9874 32.5212 35.1713 32.8996 35.6495C33.0006 35.7967 33.1267 35.9438 33.2024 36.1646C33.2781 35.3552 33.4042 34.5827 33.6061 33.847C33.6565 33.7366 33.6818 33.5895 33.6818 33.4423C33.7574 32.633 33.379 31.8605 32.7987 31.7134C31.4111 31.3455 30.1497 31.6398 29.0396 32.1548ZM36.0533 38.7764C36.2299 38.6293 36.4065 38.6293 36.6588 38.6293C37.0373 38.6293 37.3652 39.0707 37.5418 39.4018C37.5923 39.5121 37.6428 39.8432 37.6428 39.9904C37.6428 40.1007 37.668 40.3214 37.6428 40.4318C38.1221 39.9904 38.5258 39.7329 38.7276 39.7696C38.8285 39.8064 38.5762 40.0272 38.4753 40.7629C38.5006 40.7997 38.5006 40.7997 38.4753 40.7629C38.7528 40.6157 38.8285 40.4686 39.1565 40.4686C39.5854 40.4686 39.9386 40.6893 40.2414 41.0572C40.2666 41.094 40.3171 41.1675 40.3423 41.2779C40.4937 38.7396 39.8629 37.636 38.8033 37.4153C37.996 37.2314 37.012 37.8935 36.0533 38.7764ZM44.1015 44.0001C45.1106 43.4115 46.5739 44.368 47.356 45.1405C47.8102 45.5819 48.012 46.1337 48.2895 46.7591C48.4409 47.0902 48.5923 47.4949 48.7689 47.7892C48.8446 47.8995 48.9203 48.0099 48.9959 48.1202C48.9707 47.4581 48.9455 46.8327 48.8446 46.2809C48.4661 44.0001 47.5579 42.639 45.262 43.4483C44.8836 43.5219 44.4799 43.7426 44.1015 44.0001ZM12.8928 16.079C13.1451 16.1158 13.3217 16.1894 13.5488 16.5205C13.8767 16.9987 13.8263 17.3666 13.8011 17.9184C14.0029 17.8816 14.1795 17.8448 14.3813 17.808C14.7598 17.8448 14.9112 17.9919 14.5327 18.2494C14.6084 18.2494 14.6841 18.2862 14.7598 18.323C15.0373 18.4702 15.3148 18.9484 15.4662 19.3162C15.5167 19.3898 15.7437 20.1623 15.7185 20.4198C16.3745 19.9416 16.98 19.537 17.1061 19.4634C17.2322 19.3898 17.3332 19.353 17.4341 19.2795V16.7412C16.4501 15.6744 15.2139 15.4904 13.9272 15.7847C13.574 15.8583 13.246 15.9687 12.8928 16.079ZM17.4341 20.4198V20.8613C17.207 20.7141 16.9295 20.6774 16.6772 20.7141C16.9043 20.6038 17.1818 20.4934 17.4341 20.4198Z" fill="#B96B0B"/>
<path fill-rule="evenodd" clip-rule="evenodd" d="M12.6303 15.5274C22.2679 26.4163 32.6876 35.5394 45.2518 43.5221C50.4995 46.8329 54.1578 49.7391 56.8321 48.3412C59.4307 47.0168 56.5545 38.9238 53.7036 35.6497C44.7472 25.3127 37.3046 16.1896 24.8161 7.76543C15.784 1.65884 4.48125 6.29396 12.6303 15.5274Z" fill="#E47B06"/>
<path fill-rule="evenodd" clip-rule="evenodd" d="M55.2709 37.8575C54.7916 37.0114 54.2617 36.2389 53.7319 35.6503C44.7503 25.3132 37.3076 16.1901 24.8191 7.76595C17.654 2.91011 9.0256 4.8598 9.90863 10.4882C10.2114 10.8928 10.5394 11.3343 10.9178 11.7389C20.5302 22.6278 30.9751 31.7509 43.5393 39.7336C48.787 43.0444 52.4452 45.9505 55.1195 44.5526C56.6333 43.8169 56.3305 40.874 55.2709 37.8575Z" fill="#FC9E14"/>
<path fill-rule="evenodd" clip-rule="evenodd" d="M23.9131 8.24372C19.7503 5.44793 7.99345 5.30078 13.2916 11.297C17.6563 16.2632 45.2824 37.7834 49.5461 35.9073C53.4062 33.7737 27.9246 10.9659 23.9131 8.24372Z" fill="#FEBD30"/>
<path d="M20.5069 17.6615C20.8831 17.6615 21.188 17.4145 21.188 17.1097C21.188 16.805 20.8831 16.5579 20.5069 16.5579C20.1306 16.5579 19.8257 16.805 19.8257 17.1097C19.8257 17.4145 20.1306 17.6615 20.5069 17.6615Z" fill="#E47B06"/>
<path d="M20.662 17.3668C21.0383 17.3668 21.3432 17.1198 21.3432 16.815C21.3432 16.5103 21.0383 16.2632 20.662 16.2632C20.2858 16.2632 19.9809 16.5103 19.9809 16.815C19.9809 17.1198 20.2858 17.3668 20.662 17.3668Z" fill="#F8DAB0"/>
<path d="M25.1113 14.6049C25.1906 14.3228 24.9726 13.9256 24.6244 13.7177C24.2763 13.5097 23.9298 13.5698 23.8506 13.8518C23.7713 14.1338 23.9893 14.531 24.3375 14.739C24.6856 14.9469 25.0321 14.8869 25.1113 14.6049Z" fill="#E47B06"/>
<path d="M25.3142 14.3907C25.3934 14.1087 25.1754 13.7116 24.8273 13.5037C24.4791 13.2958 24.1327 13.3558 24.0535 13.6379C23.9743 13.9199 24.1923 14.317 24.5404 14.5249C24.8886 14.7328 25.235 14.6728 25.3142 14.3907Z" fill="#F8DAB0"/>
<path fill-rule="evenodd" clip-rule="evenodd" d="M17.1578 11.9226C17.511 12.1434 17.7128 12.4744 17.6119 12.7319C17.511 12.9895 17.183 13.0262 16.8298 12.8055C16.4766 12.5848 16.2748 12.2537 16.3757 11.9962C16.4766 11.7387 16.8298 11.7019 17.1578 11.9226Z" fill="#E47B06"/>
<path fill-rule="evenodd" clip-rule="evenodd" d="M17.3856 11.7753C17.7388 11.996 17.9407 12.3271 17.8397 12.5846C17.7388 12.8421 17.4108 12.8789 17.0576 12.6582C16.7044 12.4375 16.5026 12.1064 16.6035 11.8489C16.7044 11.5914 17.0324 11.5546 17.3856 11.7753Z" fill="#F8DAB0"/>
<path d="M21.132 6.42339C21.0978 6.12273 20.7693 5.95165 20.3981 6.04128C20.0269 6.13092 19.7537 6.44732 19.7879 6.74798C19.822 7.04865 20.1506 7.21973 20.5218 7.13009C20.8929 7.04046 21.1662 6.72406 21.132 6.42339Z" fill="#E47B06"/>
<path d="M21.2633 6.07802C21.2292 5.77736 20.9006 5.60628 20.5294 5.69591C20.1582 5.78555 19.885 6.10195 19.9192 6.40262C19.9533 6.70328 20.2819 6.87436 20.6531 6.78473C21.0242 6.69509 21.2975 6.37869 21.2633 6.07802Z" fill="#F8DAB0"/>
<path fill-rule="evenodd" clip-rule="evenodd" d="M23.9673 10.672C24.2953 10.4513 24.6233 10.4881 24.699 10.7824C24.7495 11.0399 24.5224 11.4445 24.1944 11.6653C23.8664 11.886 23.5384 11.8492 23.4628 11.5549C23.4123 11.2606 23.6394 10.8559 23.9673 10.672Z" fill="#E47B06"/>
<path fill-rule="evenodd" clip-rule="evenodd" d="M24.039 10.3037C24.367 10.0829 24.6949 10.1197 24.7706 10.414C24.8211 10.6715 24.594 11.0762 24.266 11.2969C23.9381 11.5176 23.6101 11.4808 23.5344 11.1865C23.4839 10.929 23.711 10.5244 24.039 10.3037Z" fill="#F8DAB0"/>
<path fill-rule="evenodd" clip-rule="evenodd" d="M14.4338 6.91953C14.787 6.73559 15.1402 6.80917 15.1907 7.02989C15.2664 7.25061 15.0141 7.61847 14.6609 7.76562C14.3076 7.94955 13.9544 7.87598 13.904 7.65526C13.8283 7.39775 14.0806 7.06667 14.4338 6.91953Z" fill="#E47B06"/>
<path fill-rule="evenodd" clip-rule="evenodd" d="M14.5178 6.62476C14.8711 6.44082 15.2243 6.5144 15.2747 6.73512C15.3504 6.95584 15.0981 7.3237 14.7449 7.47085C14.3917 7.65478 14.0385 7.58121 13.988 7.36049C13.9376 7.10298 14.1646 6.7719 14.5178 6.62476Z" fill="#F8DAB0"/>
<path d="M18.7341 9.37687C18.641 9.10409 18.2924 9.08124 17.9557 9.32584C17.6189 9.57044 17.4215 9.98986 17.5147 10.2626C17.6079 10.5354 17.9564 10.5583 18.2932 10.3137C18.6299 10.0691 18.8273 9.64965 18.7341 9.37687Z" fill="#E47B06"/>
<path d="M18.7706 9.01353C18.6773 8.74081 18.3288 8.71815 17.9921 8.96291C17.6554 9.20768 17.4581 9.62718 17.5514 9.8999C17.6446 10.1726 17.9932 10.1953 18.3298 9.95052C18.6665 9.70576 18.8638 9.28626 18.7706 9.01353Z" fill="#F8DAB0"/>
<path fill-rule="evenodd" clip-rule="evenodd" d="M21.7411 11.8854C22.17 11.8486 22.5485 11.9958 22.5485 12.2901C22.5485 12.5476 22.1952 12.8051 21.7663 12.8787C21.3374 12.9154 20.959 12.7683 20.959 12.474C20.959 12.1797 21.3122 11.9222 21.7411 11.8854Z" fill="#E47B06"/>
<path fill-rule="evenodd" clip-rule="evenodd" d="M21.9122 11.6276C22.3411 11.5908 22.7196 11.7379 22.7196 12.0322C22.7196 12.2897 22.3664 12.5472 21.9375 12.6208C21.5086 12.6576 21.1301 12.5104 21.1301 12.2162C21.1301 11.9219 21.4581 11.6644 21.9122 11.6276Z" fill="#F8DAB0"/>
<path d="M33.7672 18.0484C33.8465 17.7663 33.6284 17.3692 33.2803 17.1613C32.9322 16.9534 32.5857 17.0135 32.5065 17.2955C32.4273 17.5775 32.6453 17.9747 32.9934 18.1826C33.3416 18.3905 33.688 18.3304 33.7672 18.0484Z" fill="#E47B06"/>
<path d="M33.9901 17.8444C34.0693 17.5624 33.8514 17.1651 33.5032 16.9572C33.1551 16.7492 32.8086 16.8093 32.7294 17.0913C32.6501 17.3733 32.8681 17.7705 33.2163 17.9785C33.5644 18.1864 33.9109 18.1264 33.9901 17.8444Z" fill="#F8DAB0"/>
<path fill-rule="evenodd" clip-rule="evenodd" d="M32.646 14.0939C32.974 13.8731 33.302 13.9099 33.3776 14.2042C33.4281 14.4617 33.201 14.8664 32.8731 15.0871C32.5451 15.3078 32.2171 15.271 32.1414 14.9767C32.0657 14.6824 32.2928 14.3146 32.646 14.0939Z" fill="#E47B06"/>
<path fill-rule="evenodd" clip-rule="evenodd" d="M32.7186 13.7622C33.0466 13.5414 33.3746 13.5782 33.4503 13.8725C33.5007 14.13 33.2737 14.5347 32.9457 14.7554C32.6177 14.9761 32.2897 14.9393 32.214 14.645C32.1383 14.3508 32.3654 13.9829 32.7186 13.7622Z" fill="#F8DAB0"/>
<path d="M28.12 13.4826C28.1613 13.1839 27.8959 12.8538 27.5271 12.7453C27.1584 12.6368 26.8259 12.791 26.7846 13.0897C26.7432 13.3884 27.0086 13.7185 27.3774 13.827C27.7462 13.9355 28.0786 13.7813 28.12 13.4826Z" fill="#E47B06"/>
<path d="M28.2992 13.2127C28.3405 12.914 28.075 12.5839 27.7062 12.4754C27.3374 12.3668 27.005 12.5211 26.9636 12.8198C26.9223 13.1186 27.1877 13.4487 27.5565 13.5572C27.9253 13.6657 28.2578 13.5115 28.2992 13.2127Z" fill="#F8DAB0"/>
<path fill-rule="evenodd" clip-rule="evenodd" d="M30.4236 15.3071C30.8525 15.2703 31.231 15.4174 31.231 15.7117C31.231 15.9692 30.8778 16.2267 30.4489 16.3003C30.02 16.3371 29.6415 16.1899 29.6415 15.8957C29.6163 15.6014 29.9695 15.3806 30.4236 15.3071Z" fill="#E47B06"/>
<path fill-rule="evenodd" clip-rule="evenodd" d="M30.5785 15.0492C31.0074 15.0124 31.3859 15.1596 31.3859 15.4539C31.3859 15.7114 31.0327 15.9689 30.6038 16.0425C30.1749 16.0793 29.7964 15.9321 29.7964 15.6378C29.7964 15.3435 30.1496 15.086 30.5785 15.0492Z" fill="#F8DAB0"/>
<path d="M29.6889 24.945C30.0651 24.945 30.3701 24.6979 30.3701 24.3932C30.3701 24.0884 30.0651 23.8414 29.6889 23.8414C29.3127 23.8414 29.0077 24.0884 29.0077 24.3932C29.0077 24.6979 29.3127 24.945 29.6889 24.945Z" fill="#E47B06"/>
<path d="M29.8441 24.6502C30.2203 24.6502 30.5253 24.4032 30.5253 24.0984C30.5253 23.7937 30.2203 23.5466 29.8441 23.5466C29.4679 23.5466 29.1629 23.7937 29.1629 24.0984C29.1629 24.4032 29.4679 24.6502 29.8441 24.6502Z" fill="#F8DAB0"/>
<path fill-rule="evenodd" clip-rule="evenodd" d="M26.3398 19.2429C26.693 19.4636 26.8949 19.7947 26.794 20.0522C26.693 20.3097 26.3651 20.3465 26.0119 20.1258C25.6586 19.905 25.4568 19.574 25.5577 19.3165C25.6586 19.059 26.0119 19.0222 26.3398 19.2429Z" fill="#E47B06"/>
<path fill-rule="evenodd" clip-rule="evenodd" d="M26.5676 19.0958C26.9209 19.3165 27.1227 19.6476 27.0218 19.9051C26.9209 20.1626 26.5929 20.1994 26.2397 19.9787C25.8865 19.758 25.6846 19.4269 25.7855 19.1694C25.8612 18.9119 26.2144 18.8751 26.5676 19.0958Z" fill="#F8DAB0"/>
<path d="M25.4831 15.9811C25.3899 15.7084 25.0414 15.6856 24.7047 15.9303C24.368 16.1749 24.1706 16.5943 24.2638 16.8671C24.357 17.1399 24.7055 17.1626 25.0422 16.918C25.379 16.6733 25.5763 16.2539 25.4831 15.9811Z" fill="#E47B06"/>
<path d="M25.5187 15.615C25.4254 15.3423 25.0769 15.3197 24.7402 15.5645C24.4035 15.8093 24.2062 16.2289 24.2995 16.5016C24.3928 16.7743 24.7413 16.7969 25.078 16.5521C25.4147 16.3073 25.612 15.8877 25.5187 15.615Z" fill="#F8DAB0"/>
<path fill-rule="evenodd" clip-rule="evenodd" d="M30.9343 19.2066C31.3632 19.1698 31.7416 19.3169 31.7416 19.6112C31.7416 19.8687 31.3884 20.1262 30.9595 20.1998C30.5306 20.2366 30.1522 20.0895 30.1522 19.7952C30.1522 19.5009 30.5054 19.2434 30.9343 19.2066Z" fill="#E47B06"/>
<path fill-rule="evenodd" clip-rule="evenodd" d="M31.1057 18.9118C31.5346 18.875 31.913 19.0222 31.913 19.3165C31.913 19.574 31.5598 19.8315 31.1309 19.905C30.702 19.9418 30.3236 19.7947 30.3236 19.5004C30.2983 19.2429 30.6515 18.9854 31.1057 18.9118Z" fill="#F8DAB0"/>
<path fill-rule="evenodd" clip-rule="evenodd" d="M36.3248 27.3365C36.678 27.5573 36.8798 27.8883 36.7789 28.1459C36.678 28.4034 36.35 28.4401 35.9968 28.2194C35.6436 27.9987 35.4417 27.6676 35.5426 27.4101C35.6183 27.1894 35.9715 27.1526 36.3248 27.3365Z" fill="#E47B06"/>
<path fill-rule="evenodd" clip-rule="evenodd" d="M36.5277 27.189C36.8809 27.4097 37.0827 27.7408 36.9818 27.9983C36.8809 28.2558 36.5529 28.2926 36.1997 28.0718C35.8465 27.8511 35.6447 27.52 35.7456 27.2625C35.8465 27.005 36.1997 26.9682 36.5277 27.189Z" fill="#F8DAB0"/>
<path d="M38.156 20.8883C38.1218 20.5876 37.7932 20.4165 37.4221 20.5062C37.0509 20.5958 36.7777 20.9122 36.8118 21.2129C36.846 21.5135 37.1746 21.6846 37.5457 21.595C37.9169 21.5053 38.1901 21.1889 38.156 20.8883Z" fill="#E47B06"/>
<path d="M38.2661 20.5869C38.2319 20.2863 37.9033 20.1154 37.5322 20.2052C37.1611 20.295 36.8879 20.6115 36.9221 20.9121C36.9564 21.2128 37.285 21.3837 37.6561 21.2939C38.0272 21.2041 38.3004 20.8876 38.2661 20.5869Z" fill="#F8DAB0"/>
<path fill-rule="evenodd" clip-rule="evenodd" d="M33.576 22.3336C33.9292 22.1496 34.2824 22.2232 34.3329 22.4439C34.4086 22.6646 34.1563 23.0325 33.8031 23.1797C33.4498 23.3636 33.0966 23.29 33.0462 23.0693C32.9957 22.8486 33.2228 22.4807 33.576 22.3336Z" fill="#E47B06"/>
<path fill-rule="evenodd" clip-rule="evenodd" d="M33.679 22.0388C34.0322 21.8549 34.3854 21.9284 34.4359 22.1491C34.5116 22.3699 34.2593 22.7377 33.9061 22.8849C33.5528 23.0688 33.1996 22.9952 33.1492 22.7745C33.0735 22.5538 33.3006 22.1859 33.679 22.0388Z" fill="#F8DAB0"/>
<path d="M37.8839 24.7822C37.7907 24.5094 37.4422 24.4865 37.1054 24.7311C36.7687 24.9756 36.5712 25.395 36.6644 25.6678C36.7576 25.9405 37.1061 25.9634 37.4428 25.7189C37.7796 25.4744 37.977 25.055 37.8839 24.7822Z" fill="#E47B06"/>
<path d="M37.9324 24.4483C37.8391 24.1756 37.4906 24.1528 37.1539 24.3975C36.8172 24.6422 36.6198 25.0617 36.713 25.3345C36.8063 25.6072 37.1548 25.63 37.4915 25.3853C37.8282 25.1405 38.0256 24.7211 37.9324 24.4483Z" fill="#F8DAB0"/>
<path d="M44.4445 31.2007C44.5237 30.9187 44.3057 30.5216 43.9575 30.3137C43.6094 30.1058 43.2629 30.1658 43.1837 30.4479C43.1045 30.7299 43.3225 31.127 43.6707 31.3349C44.0188 31.5428 44.3653 31.4828 44.4445 31.2007Z" fill="#E47B06"/>
<path d="M44.6564 31.0299C44.7356 30.7478 44.5176 30.3506 44.1695 30.1427C43.8213 29.9347 43.4749 29.9948 43.3957 30.2768C43.3164 30.5588 43.5344 30.956 43.8826 31.164C44.2307 31.3719 44.5772 31.3119 44.6564 31.0299Z" fill="#F8DAB0"/>
<path fill-rule="evenodd" clip-rule="evenodd" d="M43.3171 27.2632C43.6451 27.0424 43.9731 27.0792 44.0488 27.3735C44.0993 27.631 43.8722 28.0357 43.5442 28.2564C43.2162 28.4771 42.8882 28.4403 42.8126 28.1461C42.7369 27.8885 42.9639 27.4839 43.3171 27.2632Z" fill="#E47B06"/>
<path fill-rule="evenodd" clip-rule="evenodd" d="M43.4011 26.9315C43.7291 26.7108 44.0571 26.7475 44.1328 27.0418C44.1832 27.2993 43.9562 27.704 43.6282 27.9247C43.3002 28.1454 42.9722 28.1086 42.8965 27.8144C42.8461 27.5568 43.0732 27.1522 43.4011 26.9315Z" fill="#F8DAB0"/>
<path fill-rule="evenodd" clip-rule="evenodd" d="M41.0958 28.5137C41.5247 28.4769 41.9032 28.6241 41.9032 28.9184C41.9032 29.1759 41.55 29.4334 41.1211 29.5069C40.6922 29.5437 40.3137 29.3966 40.3137 29.1023C40.2885 28.808 40.6417 28.5505 41.0958 28.5137Z" fill="#E47B06"/>
<path fill-rule="evenodd" clip-rule="evenodd" d="M41.2507 28.2189C41.6796 28.1821 42.0581 28.3293 42.0581 28.6236C42.0581 28.8811 41.7049 29.1386 41.276 29.2122C40.8471 29.249 40.4686 29.1018 40.4686 28.8075C40.4686 28.55 40.8218 28.2925 41.2507 28.2189Z" fill="#F8DAB0"/>
<path d="M47.4694 30.0818C47.5107 29.7831 47.2453 29.453 46.8765 29.3445C46.5077 29.2361 46.1752 29.3903 46.1339 29.6891C46.0925 29.9878 46.358 30.3179 46.7268 30.4264C47.0956 30.5348 47.4281 30.3806 47.4694 30.0818Z" fill="#E47B06"/>
<path d="M47.6424 29.8578C47.6837 29.5591 47.4183 29.229 47.0496 29.1205C46.6808 29.012 46.3483 29.1662 46.307 29.4649C46.2657 29.7636 46.5311 30.0937 46.8998 30.2022C47.2686 30.3107 47.6011 30.1565 47.6424 29.8578Z" fill="#F8DAB0"/>
<defs>
<linearGradient id="paint0_linear_4102_3992" x1="12.911" y1="14.6811" x2="11.8721" y2="28.2768" gradientUnits="userSpaceOnUse">
<stop stop-color="#EB262B"/>
<stop offset="0.69" stop-color="#EB262B"/>
<stop offset="1" stop-color="white"/>
</linearGradient>
<linearGradient id="paint1_linear_4102_3992" x1="20.4859" y1="22.0211" x2="21.8677" y2="35.5732" gradientUnits="userSpaceOnUse">
<stop stop-color="#EB262B"/>
<stop offset="0.69" stop-color="#EB262B"/>
<stop offset="1" stop-color="white"/>
</linearGradient>
<linearGradient id="paint2_linear_4102_3992" x1="29.6698" y1="30.1806" x2="28.6308" y2="43.7762" gradientUnits="userSpaceOnUse">
<stop stop-color="#EB262B"/>
<stop offset="0.69" stop-color="#EB262B"/>
<stop offset="1" stop-color="white"/>
</linearGradient>
<linearGradient id="paint3_linear_4102_3992" x1="37.623" y1="37.9737" x2="39.0047" y2="51.5256" gradientUnits="userSpaceOnUse">
<stop stop-color="#EB262B"/>
<stop offset="0.69" stop-color="#EB262B"/>
<stop offset="1" stop-color="white"/>
</linearGradient>
<linearGradient id="paint4_linear_4102_3992" x1="47.0902" y1="43.3847" x2="46.0513" y2="56.9803" gradientUnits="userSpaceOnUse">
<stop stop-color="#EB262B"/>
<stop offset="0.69" stop-color="#EB262B"/>
<stop offset="1" stop-color="white"/>
</linearGradient>
</defs>
</svg>
