<svg width="655" height="166" viewBox="0 0 655 166" fill="none" xmlns="http://www.w3.org/2000/svg">
<path d="M211.665 129H207.261C207.001 127.733 206.545 126.621 205.894 125.662C205.255 124.703 204.474 123.898 203.55 123.247C202.639 122.584 201.627 122.087 200.514 121.756C199.402 121.424 198.241 121.259 197.034 121.259C194.832 121.259 192.838 121.815 191.05 122.928C189.275 124.04 187.86 125.68 186.807 127.846C185.765 130.012 185.244 132.67 185.244 135.818C185.244 138.967 185.765 141.624 186.807 143.79C187.86 145.957 189.275 147.596 191.05 148.709C192.838 149.821 194.832 150.378 197.034 150.378C198.241 150.378 199.402 150.212 200.514 149.881C201.627 149.549 202.639 149.058 203.55 148.407C204.474 147.744 205.255 146.933 205.894 145.974C206.545 145.004 207.001 143.891 207.261 142.636H211.665C211.333 144.495 210.73 146.158 209.854 147.626C208.978 149.094 207.889 150.342 206.587 151.372C205.285 152.39 203.823 153.165 202.201 153.698C200.591 154.231 198.869 154.497 197.034 154.497C193.933 154.497 191.175 153.74 188.76 152.224C186.345 150.709 184.445 148.555 183.06 145.761C181.675 142.968 180.983 139.653 180.983 135.818C180.983 131.983 181.675 128.669 183.06 125.875C184.445 123.081 186.345 120.927 188.76 119.412C191.175 117.897 193.933 117.139 197.034 117.139C198.869 117.139 200.591 117.406 202.201 117.938C203.823 118.471 205.285 119.252 206.587 120.282C207.889 121.3 208.978 122.543 209.854 124.011C210.73 125.467 211.333 127.13 211.665 129ZM229.292 154.568C226.83 154.568 224.669 153.982 222.811 152.81C220.964 151.638 219.52 149.999 218.479 147.892C217.449 145.785 216.934 143.323 216.934 140.506C216.934 137.665 217.449 135.185 218.479 133.066C219.52 130.947 220.964 129.302 222.811 128.13C224.669 126.958 226.83 126.372 229.292 126.372C231.754 126.372 233.908 126.958 235.755 128.13C237.613 129.302 239.057 130.947 240.087 133.066C241.129 135.185 241.65 137.665 241.65 140.506C241.65 143.323 241.129 145.785 240.087 147.892C239.057 149.999 237.613 151.638 235.755 152.81C233.908 153.982 231.754 154.568 229.292 154.568ZM229.292 150.804C231.162 150.804 232.701 150.325 233.908 149.366C235.116 148.407 236.009 147.146 236.589 145.584C237.169 144.021 237.459 142.329 237.459 140.506C237.459 138.683 237.169 136.984 236.589 135.41C236.009 133.835 235.116 132.563 233.908 131.592C232.701 130.622 231.162 130.136 229.292 130.136C227.421 130.136 225.883 130.622 224.675 131.592C223.468 132.563 222.574 133.835 221.994 135.41C221.414 136.984 221.124 138.683 221.124 140.506C221.124 142.329 221.414 144.021 221.994 145.584C222.574 147.146 223.468 148.407 224.675 149.366C225.883 150.325 227.421 150.804 229.292 150.804ZM248.046 154V126.727H252.094V130.989H252.45C253.018 129.533 253.935 128.402 255.202 127.597C256.468 126.781 257.989 126.372 259.765 126.372C261.564 126.372 263.062 126.781 264.257 127.597C265.464 128.402 266.406 129.533 267.08 130.989H267.364C268.063 129.58 269.11 128.461 270.507 127.633C271.904 126.792 273.579 126.372 275.532 126.372C277.97 126.372 279.965 127.136 281.516 128.663C283.066 130.178 283.842 132.539 283.842 135.747V154H279.651V135.747C279.651 133.735 279.101 132.297 278 131.433C276.899 130.568 275.603 130.136 274.112 130.136C272.194 130.136 270.708 130.716 269.655 131.876C268.601 133.025 268.075 134.481 268.075 136.244V154H263.813V135.321C263.813 133.77 263.31 132.522 262.304 131.575C261.298 130.616 260.002 130.136 258.415 130.136C257.326 130.136 256.308 130.426 255.362 131.006C254.426 131.586 253.669 132.391 253.089 133.421C252.521 134.439 252.237 135.617 252.237 136.955V154H248.046ZM291.503 164.227V126.727H295.551V131.06H296.049C296.356 130.586 296.783 129.982 297.327 129.249C297.883 128.503 298.676 127.84 299.706 127.26C300.748 126.668 302.157 126.372 303.932 126.372C306.229 126.372 308.253 126.946 310.005 128.094C311.757 129.243 313.124 130.87 314.106 132.977C315.089 135.084 315.58 137.57 315.58 140.435C315.58 143.323 315.089 145.826 314.106 147.945C313.124 150.052 311.762 151.686 310.022 152.846C308.282 153.994 306.276 154.568 304.003 154.568C302.251 154.568 300.849 154.278 299.795 153.698C298.742 153.106 297.931 152.437 297.363 151.692C296.794 150.934 296.356 150.307 296.049 149.81H295.694V164.227H291.503ZM295.623 140.364C295.623 142.423 295.924 144.24 296.528 145.815C297.132 147.377 298.014 148.602 299.174 149.49C300.334 150.366 301.754 150.804 303.435 150.804C305.187 150.804 306.649 150.342 307.821 149.419C309.004 148.484 309.892 147.229 310.484 145.655C311.088 144.069 311.39 142.305 311.39 140.364C311.39 138.446 311.094 136.718 310.502 135.179C309.922 133.628 309.04 132.403 307.856 131.504C306.684 130.592 305.211 130.136 303.435 130.136C301.73 130.136 300.298 130.568 299.138 131.433C297.978 132.285 297.102 133.48 296.51 135.019C295.918 136.546 295.623 138.328 295.623 140.364ZM329.998 154.639C328.269 154.639 326.701 154.314 325.292 153.663C323.884 153 322.765 152.047 321.936 150.804C321.108 149.549 320.694 148.034 320.694 146.259C320.694 144.696 321.001 143.429 321.617 142.459C322.232 141.476 323.055 140.707 324.085 140.151C325.115 139.594 326.251 139.18 327.494 138.908C328.749 138.624 330.009 138.399 331.276 138.233C332.933 138.02 334.277 137.86 335.306 137.754C336.348 137.635 337.106 137.44 337.579 137.168C338.065 136.895 338.307 136.422 338.307 135.747V135.605C338.307 133.853 337.828 132.492 336.869 131.521C335.922 130.551 334.484 130.065 332.554 130.065C330.554 130.065 328.985 130.503 327.849 131.379C326.713 132.255 325.914 133.19 325.452 134.185L321.475 132.764C322.185 131.107 323.132 129.817 324.316 128.893C325.511 127.958 326.813 127.307 328.222 126.94C329.642 126.562 331.039 126.372 332.412 126.372C333.288 126.372 334.294 126.479 335.431 126.692C336.579 126.893 337.686 127.313 338.751 127.952C339.828 128.592 340.722 129.556 341.432 130.847C342.142 132.137 342.498 133.865 342.498 136.031V154H338.307V150.307H338.094C337.81 150.899 337.337 151.532 336.674 152.207C336.011 152.881 335.129 153.455 334.028 153.929C332.927 154.402 331.584 154.639 329.998 154.639ZM330.637 150.875C332.294 150.875 333.691 150.549 334.827 149.898C335.975 149.247 336.839 148.407 337.419 147.377C338.011 146.347 338.307 145.264 338.307 144.128V140.293C338.13 140.506 337.739 140.701 337.135 140.879C336.543 141.044 335.857 141.192 335.076 141.322C334.306 141.441 333.555 141.547 332.821 141.642C332.099 141.725 331.513 141.796 331.063 141.855C329.974 141.997 328.956 142.228 328.009 142.548C327.074 142.855 326.316 143.323 325.736 143.95C325.168 144.566 324.884 145.406 324.884 146.472C324.884 147.928 325.422 149.028 326.5 149.774C327.589 150.508 328.968 150.875 330.637 150.875ZM354.336 137.594V154H350.146V126.727H354.194V130.989H354.549C355.188 129.604 356.159 128.491 357.461 127.651C358.763 126.798 360.444 126.372 362.504 126.372C364.35 126.372 365.966 126.751 367.351 127.509C368.736 128.254 369.813 129.391 370.583 130.918C371.352 132.433 371.737 134.35 371.737 136.67V154H367.546V136.955C367.546 134.812 366.99 133.143 365.877 131.947C364.765 130.74 363.238 130.136 361.296 130.136C359.959 130.136 358.763 130.426 357.71 131.006C356.668 131.586 355.845 132.433 355.242 133.545C354.638 134.658 354.336 136.008 354.336 137.594ZM381.116 164.227C380.406 164.227 379.773 164.168 379.216 164.05C378.66 163.943 378.275 163.837 378.062 163.73L379.127 160.037C380.145 160.297 381.045 160.392 381.826 160.321C382.608 160.25 383.3 159.901 383.904 159.273C384.519 158.658 385.082 157.658 385.591 156.273L386.372 154.142L376.287 126.727H380.832L388.36 148.46H388.645L396.173 126.727H400.718L389.142 157.977C388.621 159.386 387.976 160.552 387.206 161.475C386.437 162.41 385.543 163.103 384.525 163.553C383.519 164.002 382.383 164.227 381.116 164.227Z" fill="#A855F7"/>
<path d="M224.636 40.6364C224.227 37.1818 222.568 34.5 219.659 32.5909C216.75 30.6818 213.182 29.7273 208.955 29.7273C205.864 29.7273 203.159 30.2273 200.841 31.2273C198.545 32.2273 196.75 33.6023 195.455 35.3523C194.182 37.1023 193.545 39.0909 193.545 41.3182C193.545 43.1818 193.989 44.7841 194.875 46.125C195.784 47.4432 196.943 48.5455 198.352 49.4318C199.761 50.2955 201.239 51.0114 202.784 51.5795C204.33 52.125 205.75 52.5682 207.045 52.9091L214.136 54.8182C215.955 55.2955 217.977 55.9545 220.205 56.7955C222.455 57.6364 224.602 58.7841 226.648 60.2386C228.716 61.6705 230.42 63.5114 231.761 65.7614C233.102 68.0114 233.773 70.7727 233.773 74.0455C233.773 77.8182 232.784 81.2273 230.807 84.2727C228.852 87.3182 225.989 89.7386 222.216 91.5341C218.466 93.3295 213.909 94.2273 208.545 94.2273C203.545 94.2273 199.216 93.4205 195.557 91.8068C191.92 90.1932 189.057 87.9432 186.966 85.0568C184.898 82.1705 183.727 78.8182 183.455 75H192.182C192.409 77.6364 193.295 79.8182 194.841 81.5455C196.409 83.25 198.386 84.5227 200.773 85.3636C203.182 86.1818 205.773 86.5909 208.545 86.5909C211.773 86.5909 214.67 86.0682 217.239 85.0227C219.807 83.9545 221.841 82.4773 223.341 80.5909C224.841 78.6818 225.591 76.4545 225.591 73.9091C225.591 71.5909 224.943 69.7045 223.648 68.25C222.352 66.7955 220.648 65.6136 218.534 64.7045C216.42 63.7955 214.136 63 211.682 62.3182L203.091 59.8636C197.636 58.2955 193.318 56.0568 190.136 53.1477C186.955 50.2386 185.364 46.4318 185.364 41.7273C185.364 37.8182 186.42 34.4091 188.534 31.5C190.67 28.5682 193.534 26.2955 197.125 24.6818C200.739 23.0455 204.773 22.2273 209.227 22.2273C213.727 22.2273 217.727 23.0341 221.227 24.6477C224.727 26.2386 227.5 28.4205 229.545 31.1932C231.614 33.9659 232.705 37.1136 232.818 40.6364H224.636ZM267.855 94.0909C263.128 94.0909 258.98 92.9659 255.412 90.7159C251.866 88.4659 249.094 85.3182 247.094 81.2727C245.116 77.2273 244.128 72.5 244.128 67.0909C244.128 61.6364 245.116 56.875 247.094 52.8068C249.094 48.7386 251.866 45.5795 255.412 43.3295C258.98 41.0795 263.128 39.9545 267.855 39.9545C272.582 39.9545 276.719 41.0795 280.264 43.3295C283.832 45.5795 286.605 48.7386 288.582 52.8068C290.582 56.875 291.582 61.6364 291.582 67.0909C291.582 72.5 290.582 77.2273 288.582 81.2727C286.605 85.3182 283.832 88.4659 280.264 90.7159C276.719 92.9659 272.582 94.0909 267.855 94.0909ZM267.855 86.8636C271.446 86.8636 274.401 85.9432 276.719 84.1023C279.037 82.2614 280.753 79.8409 281.866 76.8409C282.98 73.8409 283.537 70.5909 283.537 67.0909C283.537 63.5909 282.98 60.3295 281.866 57.3068C280.753 54.2841 279.037 51.8409 276.719 49.9773C274.401 48.1136 271.446 47.1818 267.855 47.1818C264.264 47.1818 261.31 48.1136 258.991 49.9773C256.673 51.8409 254.957 54.2841 253.844 57.3068C252.73 60.3295 252.173 63.5909 252.173 67.0909C252.173 70.5909 252.73 73.8409 253.844 76.8409C254.957 79.8409 256.673 82.2614 258.991 84.1023C261.31 85.9432 264.264 86.8636 267.855 86.8636ZM327.182 40.6364V47.4545H298.955V40.6364H327.182ZM307.409 93V33.4091C307.409 30.4091 308.114 27.9091 309.523 25.9091C310.932 23.9091 312.761 22.4091 315.011 21.4091C317.261 20.4091 319.636 19.9091 322.136 19.9091C324.114 19.9091 325.727 20.0682 326.977 20.3864C328.227 20.7045 329.159 21 329.773 21.2727L327.455 28.2273C327.045 28.0909 326.477 27.9205 325.75 27.7159C325.045 27.5114 324.114 27.4091 322.955 27.4091C320.295 27.4091 318.375 28.0795 317.193 29.4205C316.034 30.7614 315.455 32.7273 315.455 35.3182V93H307.409ZM361.23 40.6364V47.4545H334.094V40.6364H361.23ZM342.003 28.0909H350.048V78C350.048 80.2727 350.378 81.9773 351.037 83.1136C351.719 84.2273 352.582 84.9773 353.628 85.3636C354.696 85.7273 355.821 85.9091 357.003 85.9091C357.889 85.9091 358.616 85.8636 359.185 85.7727C359.753 85.6591 360.207 85.5682 360.548 85.5L362.185 92.7273C361.639 92.9318 360.878 93.1364 359.901 93.3409C358.923 93.5682 357.685 93.6818 356.185 93.6818C353.912 93.6818 351.685 93.1932 349.503 92.2159C347.344 91.2386 345.548 89.75 344.116 87.75C342.707 85.75 342.003 83.2273 342.003 80.1818V28.0909ZM422.151 45C421.401 42.7045 420.412 40.6477 419.185 38.8295C417.98 36.9886 416.537 35.4205 414.855 34.125C413.196 32.8295 411.31 31.8409 409.196 31.1591C407.082 30.4773 404.764 30.1364 402.241 30.1364C398.105 30.1364 394.344 31.2045 390.957 33.3409C387.571 35.4773 384.878 38.625 382.878 42.7841C380.878 46.9432 379.878 52.0455 379.878 58.0909C379.878 64.1364 380.889 69.2386 382.912 73.3977C384.935 77.5568 387.673 80.7045 391.128 82.8409C394.582 84.9773 398.469 86.0455 402.787 86.0455C406.787 86.0455 410.31 85.1932 413.355 83.4886C416.423 81.7614 418.81 79.3295 420.514 76.1932C422.241 73.0341 423.105 69.3182 423.105 65.0455L425.696 65.5909H404.696V58.0909H431.287V65.5909C431.287 71.3409 430.06 76.3409 427.605 80.5909C425.173 84.8409 421.81 88.1364 417.514 90.4773C413.241 92.7955 408.332 93.9545 402.787 93.9545C396.605 93.9545 391.173 92.5 386.491 89.5909C381.832 86.6818 378.196 82.5455 375.582 77.1818C372.991 71.8182 371.696 65.4545 371.696 58.0909C371.696 52.5682 372.435 47.6023 373.912 43.1932C375.412 38.7614 377.526 34.9886 380.253 31.875C382.98 28.7614 386.207 26.375 389.935 24.7159C393.662 23.0568 397.764 22.2273 402.241 22.2273C405.923 22.2273 409.355 22.7841 412.537 23.8977C415.741 24.9886 418.594 26.5455 421.094 28.5682C423.616 30.5682 425.719 32.9659 427.401 35.7614C429.082 38.5341 430.241 41.6136 430.878 45H422.151ZM444.676 93V40.6364H452.449V48.5455H452.994C453.949 45.9545 455.676 43.8523 458.176 42.2386C460.676 40.625 463.494 39.8182 466.631 39.8182C467.222 39.8182 467.96 39.8295 468.847 39.8523C469.733 39.875 470.403 39.9091 470.858 39.9545V48.1364C470.585 48.0682 469.96 47.9659 468.983 47.8295C468.028 47.6705 467.017 47.5909 465.949 47.5909C463.403 47.5909 461.131 48.125 459.131 49.1932C457.153 50.2386 455.585 51.6932 454.426 53.5568C453.29 55.3977 452.722 57.5 452.722 59.8636V93H444.676ZM500.074 94.0909C495.347 94.0909 491.199 92.9659 487.631 90.7159C484.085 88.4659 481.312 85.3182 479.312 81.2727C477.335 77.2273 476.347 72.5 476.347 67.0909C476.347 61.6364 477.335 56.875 479.312 52.8068C481.312 48.7386 484.085 45.5795 487.631 43.3295C491.199 41.0795 495.347 39.9545 500.074 39.9545C504.801 39.9545 508.938 41.0795 512.483 43.3295C516.051 45.5795 518.824 48.7386 520.801 52.8068C522.801 56.875 523.801 61.6364 523.801 67.0909C523.801 72.5 522.801 77.2273 520.801 81.2727C518.824 85.3182 516.051 88.4659 512.483 90.7159C508.938 92.9659 504.801 94.0909 500.074 94.0909ZM500.074 86.8636C503.665 86.8636 506.619 85.9432 508.938 84.1023C511.256 82.2614 512.972 79.8409 514.085 76.8409C515.199 73.8409 515.756 70.5909 515.756 67.0909C515.756 63.5909 515.199 60.3295 514.085 57.3068C512.972 54.2841 511.256 51.8409 508.938 49.9773C506.619 48.1136 503.665 47.1818 500.074 47.1818C496.483 47.1818 493.528 48.1136 491.21 49.9773C488.892 51.8409 487.176 54.2841 486.062 57.3068C484.949 60.3295 484.392 63.5909 484.392 67.0909C484.392 70.5909 484.949 73.8409 486.062 76.8409C487.176 79.8409 488.892 82.2614 491.21 84.1023C493.528 85.9432 496.483 86.8636 500.074 86.8636ZM569.082 71.5909V40.6364H577.128V93H569.082V84.1364H568.537C567.31 86.7955 565.401 89.0568 562.81 90.9205C560.219 92.7614 556.946 93.6818 552.991 93.6818C549.719 93.6818 546.81 92.9659 544.264 91.5341C541.719 90.0795 539.719 87.8977 538.264 84.9886C536.81 82.0568 536.082 78.3636 536.082 73.9091V40.6364H544.128V73.3636C544.128 77.1818 545.196 80.2273 547.332 82.5C549.491 84.7727 552.241 85.9091 555.582 85.9091C557.582 85.9091 559.616 85.3977 561.685 84.375C563.776 83.3523 565.526 81.7841 566.935 79.6705C568.366 77.5568 569.082 74.8636 569.082 71.5909ZM591.864 112.636V40.6364H599.636V48.9545H600.591C601.182 48.0455 602 46.8864 603.045 45.4773C604.114 44.0455 605.636 42.7727 607.614 41.6591C609.614 40.5227 612.318 39.9545 615.727 39.9545C620.136 39.9545 624.023 41.0568 627.386 43.2614C630.75 45.4659 633.375 48.5909 635.261 52.6364C637.148 56.6818 638.091 61.4545 638.091 66.9545C638.091 72.5 637.148 77.3068 635.261 81.375C633.375 85.4205 630.761 88.5568 627.42 90.7841C624.08 92.9886 620.227 94.0909 615.864 94.0909C612.5 94.0909 609.807 93.5341 607.784 92.4205C605.761 91.2841 604.205 90 603.114 88.5682C602.023 87.1136 601.182 85.9091 600.591 84.9545H599.909V112.636H591.864ZM599.773 66.8182C599.773 70.7727 600.352 74.2614 601.511 77.2841C602.67 80.2841 604.364 82.6364 606.591 84.3409C608.818 86.0227 611.545 86.8636 614.773 86.8636C618.136 86.8636 620.943 85.9773 623.193 84.2045C625.466 82.4091 627.17 80 628.307 76.9773C629.466 73.9318 630.045 70.5455 630.045 66.8182C630.045 63.1364 629.477 59.8182 628.341 56.8636C627.227 53.8864 625.534 51.5341 623.261 49.8068C621.011 48.0568 618.182 47.1818 614.773 47.1818C611.5 47.1818 608.75 48.0114 606.523 49.6705C604.295 51.3068 602.614 53.6023 601.477 56.5568C600.341 59.4886 599.773 62.9091 599.773 66.8182Z" fill="#A855F7"/>
<path d="M98.7844 165.362C97.7163 165.489 96.6215 165.598 95.5 165.687C95.5 165.687 104 161.319 107 156.126C110.556 155.793 113.677 155.184 116.364 154.298C120.667 152.738 124.079 150.539 126.601 147.702C129.271 144.723 131.126 141.106 132.164 136.851C133.351 132.454 133.944 127.418 133.944 121.745V94.0851C133.944 89.9716 132.683 87.3475 130.161 86.2128C127.788 84.9362 123.115 84.2979 116.142 84.2979V81.5319H174V84.2979C169.698 84.2979 165.989 84.9362 162.873 86.2128C159.906 87.3475 158.423 89.9716 158.423 94.0851L158.645 163.447H155.53C155.53 155.504 154.936 149.972 153.75 146.851C152.711 143.73 150.263 142.17 146.406 142.17C143.884 142.17 141.436 142.879 139.063 144.298C136.837 145.716 133.648 148.199 129.494 151.745C125.933 154.723 122.521 157.135 119.257 158.979C115.994 160.823 112.656 162.312 109.243 163.447C105.831 164.44 102.345 165.078 98.7844 165.362Z" fill="#A855F7"/>
<path d="M36.4757 147.277C36.4757 147.277 57 151.745 65.6273 143.447C61.325 139.475 57.542 134.936 54.2782 129.83C51.1627 124.582 48.5665 119.05 46.4896 113.234C45.2029 109.354 44.1144 105.443 43.2239 101.5C31 94.5 14.3251 80.5 14.3251 80.5C14.1084 83.3904 14 86.3585 14 89.4043C14 102.454 16.0028 113.801 20.0083 123.447C24.1623 132.95 29.6514 140.894 36.4757 147.277Z" fill="#A855F7"/>
<path d="M38.5 26.411C38.5 26.411 42.0389 36 47.7283 40C49.6611 35.7667 51.9928 31.9511 54.7232 28.5532C57.9852 24.4937 61.7713 21.1427 66.0814 18.5C63.5 15 56.845 13.9601 56.845 13.9601C50.0844 17.1845 43.9694 21.3348 38.5 26.411Z" fill="#A855F7"/>
<path d="M111.024 7.70212C110.067 7.4661 109.059 7.25463 108 7.06771V12.1177C117.591 13.7782 125.868 17.4836 132.832 23.234C142.771 31.1773 149.447 42.0993 152.86 56H155.53L152.192 8.34042H149.299C149.299 10.7518 148.557 12.7376 147.074 14.2979C145.739 15.8581 143.587 16.6383 140.62 16.6383C137.802 16.6383 135.057 16.0709 132.387 14.9362C129.716 13.8014 126.675 12.5957 123.263 11.3191C119.851 10.0425 115.771 8.83687 111.024 7.70212Z" fill="#A855F7"/>
<path d="M6.6879 125.604C4.16136 117.657 2.89809 108.165 2.89809 97.1277H0V163.351H2.89809C2.89809 158.2 6.31635 155.625 13.1529 155.625C15.828 155.625 18.3546 156.214 20.7325 157.391C23.259 158.421 26.0828 159.598 29.2038 160.923C32.3248 162.1 35.966 163.204 40.1274 164.234C44.2887 165.411 49.4161 166 55.5096 166C64.8726 166 72.7495 164.97 79.1401 162.91C85.5308 160.702 90.5839 157.759 94.2994 154.08C98.1635 150.254 100.913 145.839 102.548 140.835C104.183 135.832 105 130.534 105 124.941C105 117.142 102.994 110.299 98.9809 104.412C95.1168 98.5257 90.2123 93.1543 84.2675 88.2979C78.3227 83.4415 71.8577 78.8794 64.8726 74.6117C57.8875 70.344 51.4225 65.9291 45.4777 61.367C39.5329 56.805 34.5541 51.8014 30.5414 46.3564C26.6773 40.9113 24.7452 34.5833 24.7452 27.3723C24.7452 20.8972 26.6773 15.5993 30.5414 11.4787C34.4055 7.21099 40.7962 5.07713 49.7134 5.07713C55.9554 5.07713 61.6773 6.25443 66.879 8.60904C72.2293 10.9636 76.8365 14.3484 80.7006 18.7633C84.5648 23.031 87.6115 28.2553 89.8408 34.4362C92.0701 40.4699 93.1847 47.1658 93.1847 54.5239H96.0828V2.42819H93.1847C93.1847 5.81294 92.6646 8.16755 91.6242 9.49202C90.5839 10.6693 88.5775 11.258 85.6051 11.258C83.3758 11.258 81.1465 10.6693 78.9172 9.49202C76.6879 8.31471 74.0871 7.06382 71.1147 5.73935C68.2909 4.26772 64.8726 2.94326 60.8599 1.76595C56.9958 0.588649 52.2399 0 46.5924 0C41.0934 0 35.5945 0.809396 30.0955 2.42819C24.5966 3.89982 19.6178 6.25443 15.1592 9.49202C10.7006 12.5824 7.05945 16.4823 4.23567 21.1915C1.56051 25.9007 0.22293 31.4929 0.22293 37.9681C0.22293 45.0319 2.2293 51.5071 6.24204 57.3936C10.4034 63.133 15.5308 68.578 21.6242 73.7287C27.7176 78.7323 34.3312 83.5887 41.465 88.2979C48.5987 92.8599 55.2123 97.5692 61.3057 102.426C67.3992 107.135 72.4522 112.065 76.465 117.215C80.6263 122.219 82.707 127.811 82.707 133.992C82.707 138.848 81.8896 142.969 80.2548 146.354C78.62 149.738 76.3907 152.535 73.5669 154.742C70.7431 156.802 67.3992 158.274 63.535 159.157C59.8195 160.04 55.8811 160.481 51.7197 160.481C44.8832 160.481 38.4926 159.304 32.5478 156.949C26.603 154.448 21.4013 150.621 16.9427 145.471C12.6327 140.173 9.21444 133.551 6.6879 125.604Z" fill="#8513E9"/>
</svg>
